<?xml version="1.0" encoding="utf-8"?>
<!-- Generator: Adobe Illustrator 26.0.2, SVG Export Plug-In . SVG Version: 6.00 Build 0)  -->
<svg version="1.1" id="Слой_1" xmlns="http://www.w3.org/2000/svg" xmlns:xlink="http://www.w3.org/1999/xlink" x="0px" y="0px"
	 viewBox="0 0 100 100" style="enable-background:new 0 0 100 100;" xml:space="preserve">
<style type="text/css">
	.st0{fill:#0097A9;}
	.st1{fill:#9BDBE2;}
	.st2{fill:#00B4CA;}
	.st3{fill:#FFFFFF;}
</style>
<g>
	<g>
		<g>
			<path class="st0" d="M75.7,50.6c-1.6,3.2-4.5,5.6-7.8,7.2c-1.8,0.9-3.7,1.5-5.6,1.8c-5.5,1-11.1,0.4-16.7-0.3
				c-3.2,2.8-7.5,4.2-11.7,4.5c-4.2,0.3-9.4-1.9-13-4.2c-4.7,3.5-11.6,3.5-16.4,0.2c-0.1,0-0.1-0.1-0.2-0.1c-2.2-1.6-4-4.1-4.3-6.8
				c0-0.1,0-0.3,0-0.4c-0.3-3.4,1.7-6.6,4.4-8.7c2.8-2.2,6.3-3.2,9.7-4c-3.3-1.2-4.8-6.1-3.4-9.3c1.4-3.2,5.5-4.8,8.7-3.5
				c2.6,1.1,4.3,3.9,4.3,6.7c0.7-4.1,2.2-8,4.3-11.6c2.5-4.2,6.4-7.7,11.1-9c3.8-1.1,8-0.6,11.6,1.2c2.4,1.2,4.5,2.9,6,5.2
				c0.2,0.4,0.5,0.7,0.7,1.1c3,5.4,2.6,12.6-1.1,17.6c2.3-1.9,5.5-3.2,8.6-3.5c2.5-0.2,4.9,0.2,7,1.3C76.9,38.6,78.2,45.6,75.7,50.6
				z"/>
		</g>
		<path class="st1" d="M75.7,50.6c-1.6,3.2-4.5,5.6-7.8,7.2c-1.8,0.9-3.7,1.5-5.6,1.8c-5.5,1-11.1,0.4-16.7-0.3
			c-3.2,2.8-7.5,4.2-11.7,4.5c-4.2,0.3-9.4-1.9-13-4.2c-4.7,3.5-11.6,3.5-16.4,0.2c-0.1,0-0.1-0.1-0.2-0.1c-2.2-1.6-4-4.1-4.3-6.8
			c0-0.1,0-0.3,0-0.4c0.4,1.3,1.3,2.6,2.5,3.4c2.1,1.4,4.8,1.7,7.3,1.5c2.6-0.2,5-0.9,7.6-1.3c2.5-0.4,5.2-0.4,7.5,0.8
			c-1.9-2.6-2-6.7-0.7-9.7c1.3-3,4.1-5.3,7.3-5.7c3.2-0.5,6.6,0.8,8.7,3.3c0.3-6.6,3.6-13,8.4-17.5c1.2-1.1,2.5-2.1,3.5-3.3
			c1.1-1.2,1.9-2.7,1.9-4.3c0-2.1-1.3-4-3-5.2c-0.1-0.1-0.2-0.1-0.3-0.2c2.4,1.2,4.5,2.9,6,5.2c0.2,0.4,0.5,0.7,0.7,1.1
			c3,5.4,2.6,12.6-1.1,17.6c2.3-1.9,5.5-3.2,8.6-3.5c2.5-0.2,4.9,0.2,7,1.3C76.9,38.6,78.2,45.6,75.7,50.6z"/>
	</g>
	<g>
		<path class="st2" d="M99.8,66.3c-0.2,1.5-0.8,3-1.6,4.4c-2.5,4.3-7.3,7-12.2,7.8c-4.9,0.9-10.3,1.5-15.2,0.2
			c-4.4,5.4-11.2,8.6-18.1,8.8c-6.9,0.1-13.8-2.9-18.5-8.1c-6.2,1.8-12.7,2.4-19.1,1.9c-4.4-0.4-9.2-1.6-11.6-5.2
			c-0.9-1.4-1.4-3-1.4-4.6c-0.1-2.9,1-5.8,3-8c3.1-3.3,7.8-4.8,12.4-4.9c4.6-0.1,9,0.5,13.4,1.6c-2.3-2-4.3-4.5-4.9-7.5
			c-0.6-3,0.6-6.4,3.2-7.9c2.6-1.5,6.1-0.8,8.4,1.2c2.3,1.9,3.7,4.8,4.6,7.6c-0.6-5.9,0.8-12.2,3.2-17.6c2.3-5.4,6.6-10.1,12-12.3
			c5.5-2.2,12.1-1.8,16.8,1.8c4.6,3.5,6.9,9.4,6.6,15.2c-0.3,5.7-2.8,11.2-6.4,15.7c3.7-1.7,7.5-2.7,11.6-3.1
			c4-0.4,8.4,0.6,11.2,3.6C99.6,59.2,100.4,62.9,99.8,66.3z"/>
		<path class="st1" d="M99.8,66.3c-0.2,1.5-0.8,3-1.6,4.4c-2.5,4.3-7.3,7-12.2,7.8c-4.9,0.9-10.3,1.5-15.2,0.2
			c-4.4,5.4-11.2,8.6-18.1,8.8c-6.9,0.1-13.8-2.9-18.5-8.1c-6.2,1.8-12.7,2.4-19.1,1.9c-4.4-0.4-9.2-1.6-11.6-5.2
			c-0.9-1.4-1.4-3-1.4-4.6c2.7,4,7.6,6.5,12.4,7.2c5.8,0.8,11.7-0.4,17.4-1.6c-1.6-1.9-2.3-4.9-2.1-7.4c4.3,7.5,12.7,12.3,21.4,12.3
			c8.7,0,17.1-5,21.4-12.6c-0.2,2.2-0.9,4.3-1.8,6.4c6.1,0.3,12.3,0.9,18.2-1C93.6,73.4,97.7,70.3,99.8,66.3z"/>
		<g>
			<path class="st3" d="M60.4,28c-0.4-0.6-1.1-0.8-1.7-0.5c-5.2,2.6-9.1,7.6-10.3,13.4c-0.1,0.7,0.2,1.4,0.9,1.6
				c0.6,0.2,1.4-0.2,1.6-0.9c1-5.1,4.4-9.5,9.1-11.8C60.5,29.5,60.7,28.6,60.4,28z"/>
			<path class="st3" d="M31.2,50.7c0.1-0.2,0.2-0.4,0.4-0.6c0,0-0.1,0.1-0.1,0.1c0.2-0.3,0.4-0.5,0.4-0.9c0-0.3-0.1-0.7-0.4-0.9
				c-0.2-0.2-0.6-0.4-0.9-0.4c-0.3,0-0.7,0.1-0.9,0.4c-0.6,0.7-1,1.5-1.1,2.5c-0.1,0.4-0.1,0.8,0,1.1c0,0.3,0.1,0.5,0.1,0.8
				c0.1,0.3,0.2,0.5,0.3,0.8c0.1,0.3,0.5,0.5,0.8,0.6c0.3,0.1,0.7,0,1-0.1c0.3-0.2,0.5-0.4,0.6-0.8l0-0.3c0-0.1,0-0.3-0.1-0.4
				c0,0,0,0,0,0c-0.1-0.2-0.1-0.4-0.2-0.7c0-0.2,0-0.4,0-0.6C31,51,31.1,50.9,31.2,50.7z"/>
			<path class="st3" d="M19.3,61.5c-3.8-0.4-7.7,0.6-10.8,2.6c-0.6,0.4-0.8,1.1-0.5,1.7c0.3,0.6,1.2,0.8,1.7,0.5
				c2.8-1.9,6.2-2.6,9.5-2.3c0.7,0.1,1.3-0.6,1.3-1.3C20.5,62,19.9,61.6,19.3,61.5z"/>
		</g>
	</g>
</g>
</svg>
