<?xml version="1.0" encoding="utf-8"?>
<!-- Generator: Adobe Illustrator 26.0.2, SVG Export Plug-In . SVG Version: 6.00 Build 0)  -->
<svg version="1.1" id="Слой_1" xmlns="http://www.w3.org/2000/svg" xmlns:xlink="http://www.w3.org/1999/xlink" x="0px" y="0px"
	 viewBox="0 0 100 100" style="enable-background:new 0 0 100 100;" xml:space="preserve">
<style type="text/css">
	.st0{fill:#FFDC45;}
	.st1{fill:#FF8D02;}
</style>
<g>
	<path class="st0" d="M100,50c0,24-19.5,43.5-43.5,43.5c-15.7,0-29.5-8.3-37.1-20.8c5.5,5.2,13,8.3,21.1,8.3c17.1,0,31-13.9,31-31
		c0-17.1-13.9-31-31-31c-8.2,0-15.6,3.1-21.1,8.3C27.1,14.9,40.8,6.5,56.5,6.5C80.5,6.5,100,26,100,50z"/>
	<g>
		<polygon class="st0" points="12.8,22.2 16.1,31.3 25.7,31.6 18,37.4 20.8,46.7 12.8,41.2 4.9,46.7 7.6,37.4 0,31.6 9.6,31.3 		"/>
		<polygon class="st1" points="35.8,44.6 37.8,50.3 43.9,50.5 39.1,54.1 40.8,59.9 35.8,56.5 30.8,59.9 32.5,54.1 27.7,50.5 
			33.8,50.3 		"/>
		<polygon class="st1" points="5.7,58.8 7.2,62.8 11.5,62.9 8.1,65.6 9.3,69.7 5.7,67.2 2.2,69.7 3.4,65.6 0,62.9 4.3,62.8 		"/>
	</g>
</g>
</svg>
