<?xml version="1.0" encoding="utf-8"?>
<!-- Generator: Adobe Illustrator 26.0.2, SVG Export Plug-In . SVG Version: 6.00 Build 0)  -->
<svg version="1.1" id="Слой_1" xmlns="http://www.w3.org/2000/svg" xmlns:xlink="http://www.w3.org/1999/xlink" x="0px" y="0px"
	 viewBox="0 0 100 100" style="enable-background:new 0 0 100 100;" xml:space="preserve">
<style type="text/css">
	.st0{fill:#FF8D02;}
	.st1{fill:#FFDC45;}
	.st2{fill:#00B4CA;}
	.st3{fill:#9BDBE2;}
	.st4{fill:#FFFFFF;}
</style>
<g>
	<g>
		<path class="st0" d="M100,35.5c-2.8,1.1-4.3,4.2-4.2,7.2c0.2,3,1.8,5.7,3.9,7.8c-2.7-0.6-5.7,1.2-7,3.7c-1.3,2.4-1.4,5.4-0.7,8.1
			c-2.3-0.1-4.8,0.1-7.1,0.8c-2.2,0.8-4.3,2.3-5.2,4.4c-1.6-1.9-4.3-2.9-6.7-2.9s-4.9,1.2-6.5,3.1c-0.8-2.7-2.7-5-5.2-6.3
			c-2.4-1.3-5.4-1.6-8.1-0.8c1.2-3.4,1.4-7.2,0.2-10.6c-1.2-3.4-3.6-6.4-6.6-8.2c3.1-1.5,4.9-4.9,5.3-8.3c0.4-3.4-0.3-6.8-1.1-10.1
			c3.1,1.4,6.8,1.4,9.8-0.1c3.1-1.4,4.9-4.9,5.3-8.5c0.9,2,3.7,4.2,5.7,4.6c2,0.4,4.2,0,6-0.9c1.9-0.9,3.5-2.3,4.9-3.7
			c0.2,2.1,0.6,4.4,2.1,5.9c1,1,2.4,1.5,3.7,1.6c1.4,0.2,2.8,0,4.1-0.1c-1.5,2.4-1.4,5.8-0.2,8.3C93.9,32.9,97.2,35.1,100,35.5z"/>
		<circle class="st1" cx="73.3" cy="42.7" r="19.4"/>
	</g>
	<g>
		<path class="st2" d="M92.8,72.1c-0.9,4.1-5.3,6.8-9.5,7.2c-4.2,0.4-8.6-1-12.6-2.3c-3.3,4.9-9,8.1-14.9,8.5
			c-5.9,0.4-11.7-2.5-15.6-6.9c-2.5,2.2-5.9,3.3-9.2,3c-3.3-0.4-6.6-2-8.5-4.7c-3.3,1-6.7,1.8-10.1,1.7c-3.4-0.1-6.9-1.3-9.4-3.6
			c-1.1-1-1.9-2.3-2.4-3.6c-0.7-1.8-0.9-3.8-0.3-5.7c1.1-3.6,4.7-6,8.4-6.6c3.7-0.7,7.5,0.1,11.2,1c-1.4-1.7-2.6-3.4-3.3-5.5
			c-0.7-2.1-0.7-4.5,0.6-6.3c1.3-1.8,3.6-2.6,5.8-2.4c2.2,0.3,4.1,1.5,5.6,3.1c-3.3-4.4-4.4-10.2-3.3-15.6
			c1.1-5.4,4.8-10.3,9.9-12.4c5-2.2,11.3-1.5,15.6,1.9c3.5,2.8,5.5,7.1,6.4,11.5c0.9,4.4,0.7,8.9,0.6,13.4c1-3.4,2.6-6.7,5.2-9.2
			c2.5-2.4,6.3-3.9,9.7-2.8c3.1,0.9,5.4,3.8,6,7c0.7,3.2-0.1,6.5-1.7,9.3c-1.6,2.8-3.3,6.3-5.8,8.3c3.2-0.4,6.5-0.7,9.7-0.4
			c3.2,0.3,6.5,1.4,8.9,3.6c1.8,1.6,3,3.9,3.2,6.3C93,70.4,93,71.2,92.8,72.1z"/>
		<path class="st3" d="M92.8,72.1c-0.9,4.1-5.3,6.8-9.5,7.2c-4.2,0.4-8.6-1-12.6-2.3c-3.3,4.9-9,8.1-14.9,8.5
			c-5.9,0.4-11.7-2.5-15.6-6.9c-2.5,2.2-5.9,3.3-9.2,3c-3.3-0.4-6.6-2-8.5-4.7c-3.3,1-6.7,1.8-10.1,1.7c-3.4-0.1-6.9-1.3-9.4-3.6
			c-1.1-1-1.9-2.3-2.4-3.6c1.8,1.9,4.4,3.1,7,3.5c4.2,0.7,8.5-0.3,12.6-1.3c-1-2.2-1.4-5.1-1.2-7.5c0.6,3.8,3.2,7.2,6.6,8.9
			c3.4,1.7,7.7,1.6,11.1-0.3c-1.4-1.8-1.8-4.2-1.7-6.4c2.6,7.4,10.2,12.7,18,13c7.8,0.3,15.6-4.4,18.8-11.5c0,1.3-0.2,2.5-0.2,3.8
			c4.4,1.5,9,2.5,13.6,2.1c2.5-0.2,5.2-0.8,6.6-2.9c0.6-0.8,0.8-1.8,0.9-2.8C93,70.4,93,71.2,92.8,72.1z"/>
		<g>
			<path class="st4" d="M35.4,26.3c-0.3-0.5-1-0.7-1.5-0.4c-2.5,1.3-4.4,3.7-5.2,6.4c-0.2,0.6,0.2,1.2,0.8,1.4
				c0.6,0.1,1.2-0.2,1.4-0.8c0.1-0.3,0.2-0.6,0.3-0.9c0,0,0,0,0,0c0,0,0,0,0,0c0-0.1,0.1-0.1,0.1-0.2c0.1-0.1,0.1-0.3,0.2-0.4
				c0.1-0.3,0.3-0.6,0.5-0.8c0.1-0.1,0.2-0.2,0.2-0.4c0,0,0.2-0.3,0-0.1c0-0.1,0.1-0.1,0.1-0.2c0.4-0.5,0.8-0.9,1.3-1.3
				c0,0,0.1,0,0.1-0.1c0.1,0,0.1-0.1,0.2-0.1c0.1-0.1,0.2-0.2,0.4-0.2c0.3-0.2,0.5-0.3,0.8-0.5C35.5,27.5,35.7,26.8,35.4,26.3z"/>
			<path class="st4" d="M30.2,39.7c0-0.2-0.1-0.4-0.1-0.5c0-0.4,0-0.8,0-1.2c0-0.3-0.1-0.6-0.3-0.8c-0.2-0.2-0.5-0.3-0.8-0.3
				c-0.3,0-0.6,0.1-0.8,0.3c-0.1,0.1-0.1,0.1-0.2,0.2c-0.1,0.2-0.2,0.4-0.2,0.6c-0.1,0.8,0,1.6,0.2,2.3c0.1,0.3,0.3,0.5,0.5,0.7
				c0.2,0.1,0.6,0.2,0.9,0.1c0.3-0.1,0.5-0.3,0.7-0.5C30.2,40.3,30.3,40,30.2,39.7z"/>
			<path class="st4" d="M24,49c-0.1-0.2-0.4-0.5-0.7-0.5c-0.7-0.1-1.5-0.1-2.2,0.1c-0.7,0.3-1.3,0.6-1.8,1.2
				c-0.2,0.2-0.3,0.5-0.3,0.8c0,0.3,0.1,0.6,0.3,0.8c0.2,0.2,0.5,0.3,0.8,0.3c0.3,0,0.6-0.1,0.8-0.3c0.1-0.2,0.3-0.3,0.4-0.4
				c0.1-0.1,0.3-0.2,0.4-0.2c0.2-0.1,0.3-0.1,0.5-0.1c0.2,0,0.4,0,0.6,0c0,0,0,0,0,0c0.3,0,0.5,0,0.8-0.1c0.2-0.1,0.4-0.4,0.5-0.7
				C24.1,49.6,24.1,49.3,24,49z"/>
			<path class="st4" d="M13,60.6c-2.6,0-5.1,0.5-7.4,1.6c-0.5,0.3-0.7,1-0.4,1.5c0.3,0.5,1,0.7,1.5,0.4c1.9-0.9,4.1-1.4,6.2-1.3
				c0.6,0,1.1-0.5,1.1-1.1C14.1,61.1,13.7,60.6,13,60.6z"/>
		</g>
	</g>
</g>
</svg>
