<?xml version="1.0" encoding="utf-8"?>
<!-- Generator: Adobe Illustrator 26.0.2, SVG Export Plug-In . SVG Version: 6.00 Build 0)  -->
<svg version="1.1" id="Слой_1" xmlns="http://www.w3.org/2000/svg" xmlns:xlink="http://www.w3.org/1999/xlink" x="0px" y="0px"
	 viewBox="0 0 100 100" style="enable-background:new 0 0 100 100;" xml:space="preserve">
<style type="text/css">
	.st0{fill:#FFDC45;}
	.st1{fill:#FF8D02;}
	.st2{fill:#0097A9;}
	.st3{fill:#9BDBE2;}
	.st4{fill:#FFFFFF;}
</style>
<g>
	<path class="st0" d="M100,35c0,15.3-12.4,27.7-27.7,27.7c-10,0-18.8-5.3-23.7-13.3c3.5,3.3,8.3,5.3,13.5,5.3
		c10.9,0,19.8-8.8,19.8-19.8c0-10.9-8.8-19.8-19.8-19.8c-5.2,0-9.9,2-13.5,5.3c4.9-8,13.6-13.3,23.7-13.3C87.6,7.3,100,19.7,100,35z
		"/>
	<g>
		<polygon class="st0" points="31,29.4 32.9,34.7 38.5,34.8 34,38.3 35.6,43.7 31,40.5 26.3,43.7 27.9,38.3 23.4,34.8 29.1,34.7 		
			"/>
		<polygon class="st1" points="48.4,25.3 49.4,28.3 52.6,28.4 50.1,30.4 51,33.4 48.4,31.6 45.7,33.4 46.6,30.4 44.1,28.4 
			47.3,28.3 		"/>
		<polygon class="st1" points="11,12.3 12.1,15.4 15.3,15.4 12.8,17.4 13.7,20.5 11,18.7 8.4,20.5 9.3,17.4 6.8,15.4 10,15.4 		"/>
	</g>
	<g>
		<path class="st2" d="M0.9,81.6c1.8,3,5.6,4.2,9.1,4.7c5.4,0.7,11,0.3,16.3-1.1c4.2,4.5,9.9,7.3,16,7.6c6.1,0.2,12.3-2,16.9-6.1
			c3.1,2.9,7.3,4.3,11.5,4.1c4.2-0.2,7.9-3,10.7-6.1c2.4-0.1,4.8-0.5,6.9-1.7c2.1-1.2,3.8-3.2,4.2-5.6c0.1-0.5,0.1-1,0.1-1.5
			c-0.2-3.7-3.4-7-7-8.2c-4.1-1.3-8.6-0.6-12.8,0c2.9-4.5,5.9-9,7.1-14.3c1.2-5.3,0.2-11.4-3.8-15c-3.1-2.8-7.5-3.7-11.7-3.3
			c-5.7,0.5-11.2,3.1-15.2,7.3c-3.9,4.2-6.3,9.8-6.4,15.6c-0.8-1.7-3-2.8-4.9-2.5c-1.9,0.3-3.4,2.1-3.5,3.9c-2.6-3.8-6-7.4-10.3-9
			c-4.3-1.5-9.8-0.6-12.4,3.2c-1.7,2.4-2,5.7-1.3,8.5c0.7,2.9,2.4,5.4,4.3,7.7c-3.8-1.1-8-1.1-11.2,1.2c-0.8,0.6-1.5,1.3-2,2.2
			C-0.2,75.7-0.6,79,0.9,81.6z"/>
		<path class="st3" d="M0.9,81.6c1.8,3,5.6,4.2,9.1,4.7c5.4,0.7,11,0.3,16.3-1.1c4.2,4.5,9.9,7.3,16,7.6c6.1,0.2,12.3-2,16.9-6.1
			c3.1,2.9,7.3,4.3,11.5,4.1c4.2-0.2,7.9-3,10.7-6.1c2.4-0.1,4.8-0.5,6.9-1.7c2.1-1.2,3.8-3.2,4.2-5.6c0.1-0.5,0.1-1,0.1-1.5
			c-0.5,1.3-1.3,2.5-2.4,3.5c-1.8,1.5-4.5,2.2-6.8,1.8c0.6-2.2,0.7-3.4,0.6-5c-1.2,4.7-4.6,8.8-9.3,10.1c-4.7,1.3-10.1,0-13.6-3.4
			c0.5-2.1,0.7-4.6,0.5-6.8C58.5,82.9,51.6,87.6,44,87.9c-7.6,0.3-15.2-3.9-18.9-10.5c0.1,1.5,0.4,2.8,0.5,4.3
			c-5.3,1.8-10.7,2.3-16.3,1.6c-2.9-0.4-6.1-1.4-7.6-3.9c-1.1-1.8-0.9-4-0.2-6.1C-0.2,75.7-0.6,79,0.9,81.6z"/>
		<g>
			<path class="st4" d="M54.6,41.4c-2.4,1.4-4.5,3.3-5.9,5.7c-0.2,0.3-0.1,0.8,0.3,1c0.4,0.2,0.8,0.1,1-0.3c1.3-2.1,3.2-3.9,5.4-5.1
				C56.3,42.2,55.5,40.9,54.6,41.4z"/>
			<path class="st4" d="M19.2,52.7c0-0.4-0.3-0.8-0.8-0.8c-3,0.4-5.7,2.8-6.2,5.8c-0.1,0.4,0.1,0.8,0.5,0.9c0.4,0.1,0.9-0.1,0.9-0.5
				c0.2-1.3,0.8-2.3,1.7-3.2c0.1-0.1,0.2-0.2,0.3-0.3c0.1,0,0.1-0.1,0.2-0.1c0,0,0.1-0.1,0.1-0.1c0.3-0.2,0.6-0.4,0.9-0.5
				c0.1,0,0.1-0.1,0.2-0.1c0,0,0,0,0,0c0,0,0,0,0.1,0c0.1-0.1,0.3-0.1,0.4-0.2c0.1,0,0.3-0.1,0.4-0.1c0.1,0,0.2,0,0.3-0.1
				c0,0,0.3,0,0.1,0C18.8,53.4,19.2,53.1,19.2,52.7z"/>
			<path class="st4" d="M8.7,71c-1.9-0.1-3.7,0.7-5,2.1c-0.3,0.3-0.3,0.8,0,1.1c0.3,0.3,0.8,0.3,1.1,0c0.1-0.1,0.3-0.3,0.4-0.4
				c0,0,0.1-0.1,0.1-0.1c0,0,0.1-0.1,0.1-0.1c-0.1,0,0.1,0,0.1,0c0,0,0.1-0.1,0.1-0.1c0.2-0.1,0.3-0.2,0.5-0.3C6.1,73,6.2,73,6.3,73
				c0,0,0.1,0,0.1-0.1c0,0,0,0,0,0c0,0,0,0,0,0c0.4-0.1,0.7-0.3,1.1-0.3c0,0,0.1,0,0.1,0c0,0,0,0,0,0c0.1,0,0.2,0,0.3,0
				c0.2,0,0.4,0,0.6,0c0.4,0,0.8-0.4,0.8-0.8C9.4,71.3,9.1,71,8.7,71z"/>
		</g>
	</g>
</g>
</svg>
