<?xml version="1.0" encoding="utf-8"?>
<!-- Generator: Adobe Illustrator 26.0.2, SVG Export Plug-In . SVG Version: 6.00 Build 0)  -->
<svg version="1.1" id="Слой_1" xmlns="http://www.w3.org/2000/svg" xmlns:xlink="http://www.w3.org/1999/xlink" x="0px" y="0px"
	 viewBox="0 0 100 100" style="enable-background:new 0 0 100 100;" xml:space="preserve">
<style type="text/css">
	.st0{fill:#4AC4D5;}
	.st1{fill:#9BDBE2;}
	.st2{fill:#FFFFFF;}
	.st3{fill:#0097A9;}
	.st4{fill:#00B4CA;}
</style>
<g>
	<g>
		<path class="st0" d="M39.9,29.4c0.8,1.4,2.6,2,4.2,2.2c2.5,0.3,5.1,0.2,7.6-0.5c2,2.1,4.6,3.4,7.5,3.5c2.9,0.1,5.8-0.9,7.9-2.8
			c1.4,1.4,3.4,2,5.4,1.9c2-0.1,3.7-1.4,5-2.9c1.1,0,2.3-0.2,3.2-0.8c1-0.6,1.8-1.5,2-2.6c0-0.2,0.1-0.5,0-0.7
			c-0.1-1.7-1.6-3.3-3.3-3.8c-1.9-0.6-4-0.3-6,0c1.4-2.1,2.7-4.2,3.3-6.7c0.6-2.5,0.1-5.3-1.8-7c-1.5-1.3-3.5-1.7-5.5-1.6
			c-2.7,0.2-5.3,1.5-7.1,3.4c-1.8,1.9-2.9,4.6-3,7.3c-0.4-0.8-1.4-1.3-2.3-1.2c-0.9,0.2-1.6,1-1.6,1.8c-1.2-1.8-2.8-3.5-4.8-4.2
			c-2-0.7-4.6-0.3-5.8,1.5c-0.8,1.1-0.9,2.6-0.6,4c0.3,1.3,1.1,2.5,2,3.6c-1.8-0.5-3.8-0.5-5.2,0.6c-0.4,0.3-0.7,0.6-0.9,1
			C39.4,26.7,39.2,28.2,39.9,29.4z"/>
		<path class="st1" d="M39.9,29.4c0.8,1.4,2.6,2,4.2,2.2c2.5,0.3,5.1,0.2,7.6-0.5c2,2.1,4.6,3.4,7.5,3.5c2.9,0.1,5.8-0.9,7.9-2.8
			c1.4,1.4,3.4,2,5.4,1.9c2-0.1,3.7-1.4,5-2.9c1.1,0,2.3-0.2,3.2-0.8c1-0.6,1.8-1.5,2-2.6c0-0.2,0.1-0.5,0-0.7
			c-0.2,0.6-0.6,1.2-1.1,1.6c-0.8,0.7-2.1,1-3.2,0.8c0.3-1,0.3-1.6,0.3-2.3c-0.6,2.2-2.2,4.1-4.4,4.7c-2.2,0.6-4.7,0-6.3-1.6
			c0.2-1,0.3-2.2,0.2-3.2c-1.5,3.2-4.8,5.4-8.3,5.5c-3.5,0.1-7.1-1.8-8.8-4.9c0.1,0.7,0.2,1.3,0.2,2c-2.5,0.8-5,1.1-7.6,0.7
			c-1.4-0.2-2.9-0.6-3.6-1.8c-0.5-0.9-0.4-1.9-0.1-2.8C39.4,26.7,39.2,28.2,39.9,29.4z"/>
		<g>
			<path class="st2" d="M65,10.6c-1.1,0.6-2.1,1.5-2.8,2.6c-0.1,0.2,0,0.4,0.1,0.5c0.2,0.1,0.4,0,0.5-0.1c0.6-1,1.5-1.8,2.5-2.4
				C65.7,11,65.4,10.4,65,10.6z"/>
			<path class="st2" d="M48.4,15.9c0-0.2-0.2-0.4-0.4-0.4c-1.4,0.2-2.7,1.3-2.9,2.7c0,0.2,0,0.4,0.2,0.4c0.2,0,0.4-0.1,0.4-0.2
				c0.1-0.6,0.4-1.1,0.8-1.5c0.1-0.1,0.1-0.1,0.2-0.1c0,0,0,0,0.1-0.1c0,0,0,0,0.1,0c0.1-0.1,0.3-0.2,0.4-0.2c0,0,0.1,0,0.1,0
				c0,0,0,0,0,0c0,0,0,0,0,0c0.1,0,0.1-0.1,0.2-0.1c0.1,0,0.1,0,0.2-0.1c0,0,0.1,0,0.1,0c0,0,0.1,0,0.1,0
				C48.3,16.2,48.4,16.1,48.4,15.9z"/>
			<path class="st2" d="M43.5,24.4c-0.9,0-1.7,0.3-2.3,1c-0.1,0.1-0.1,0.4,0,0.5c0.1,0.1,0.4,0.1,0.5,0c0.1-0.1,0.1-0.1,0.2-0.2
				c0,0,0,0,0.1,0c0,0,0.1,0,0,0c0,0,0,0,0,0c0,0,0,0,0.1,0c0.1-0.1,0.2-0.1,0.2-0.1c0,0,0.1,0,0.1-0.1c0,0,0,0,0.1,0c0,0,0,0,0,0
				c0,0,0,0,0,0c0.2-0.1,0.3-0.1,0.5-0.2c0,0,0,0,0.1,0c0,0,0,0,0,0c0,0,0.1,0,0.1,0c0.1,0,0.2,0,0.3,0c0.2,0,0.4-0.2,0.4-0.4
				C43.9,24.6,43.7,24.4,43.5,24.4z"/>
		</g>
	</g>
	<g>
		<path class="st3" d="M97.2,68.1c-2.3,2-6.5,3.2-9.3,1.9c-3.7,3.5-7.4,5.9-12.6,6.1c-5.1,0.2-10.7-1.7-14.6-5
			c-3.3,1.8-7.6,2.1-10.9,0.2c-1.9-1.1-3.3-3.1-3.8-5.2c-0.4-1.5-0.4-3.2,0.3-4.6c1.3-3,4.7-4.7,8-5c3.3-0.3,6.8,1.4,10,2.4
			c-1.6-2.8-3-5.9-3.5-9.1c-0.5-3.2-0.1-6.7,1.6-9.5c2.3-3.8,7-6,11.4-5.5c4.4,0.4,8.5,3.3,10.5,7.3c2,4,2.1,8.8,0.4,12.9
			c2.4-1.9,6.1-2.4,9.1-1.5c2.5,0.8,4.5,2.6,5.6,4.9c0.2,0.5,0.4,0.9,0.5,1.4C100.5,62.7,99.5,66.1,97.2,68.1z"/>
		<path class="st1" d="M97.2,68.1c-2.3,2-6.5,3.2-9.3,1.9c-3.7,3.5-7.4,5.9-12.6,6.1c-5.1,0.2-10.7-1.7-14.6-5
			c-3.3,1.8-7.6,2.1-10.9,0.2c-1.9-1.1-3.3-3.1-3.8-5.2c1.3,1.8,3.2,3.2,5.4,3.8c2.7,0.7,5.7,0.2,8-1.3c-0.8-1-1.1-2.2-0.9-3.4
			c1.7,2.7,4.2,4.7,7.1,6c2.9,1.3,6.1,1.7,9.3,1.5c2.8-0.2,5.7-0.9,8.1-2.3c2.5-1.4,4.5-3.7,5.5-6.3c0.2,1.4,0.3,2.7-0.1,4.1
			c3.4,1.1,7.3,0,9.4-2.9c1.4-2,1.9-4.5,1.4-6.9c0.2,0.5,0.4,0.9,0.5,1.4C100.5,62.7,99.5,66.1,97.2,68.1z"/>
		<g>
			<path class="st2" d="M68,37.9c-3.2,1.9-5.1,5.5-4.9,9.2c0,0.5,0.4,1,1,1c0.5,0,1-0.5,1-1c-0.2-3,1.3-6,3.9-7.5
				C70.1,38.9,69.1,37.2,68,37.9z"/>
			<path class="st2" d="M54.7,59.4c0-0.5-0.4-1.1-1-1c-1.9,0.2-3.6,1.1-4.9,2.5c-0.3,0.4-0.4,1,0,1.4c0.4,0.3,1,0.4,1.4,0
				c0.3-0.3,0.5-0.6,0.8-0.8c0,0,0.1-0.1,0.1-0.1c0.1-0.1,0.1-0.1,0.2-0.2c0.2-0.1,0.3-0.2,0.5-0.3c0.1,0,0.2-0.1,0.2-0.1
				c0,0,0.1,0,0.2-0.1c0,0,0,0,0.1,0c0,0,0,0,0,0c0.1,0,0.1,0,0.2-0.1c0.1,0,0.2-0.1,0.3-0.1c0.2-0.1,0.4-0.1,0.6-0.2
				c0.1,0,0.2,0,0.3-0.1c0.1,0,0.1,0,0.2,0c0,0,0,0,0,0c0.3,0,0.5-0.1,0.7-0.3C54.6,59.9,54.7,59.6,54.7,59.4z"/>
			<path class="st2" d="M90.8,55.1c-1.9-0.1-3.8,0.4-5.4,1.5c-0.4,0.3-0.7,0.9-0.4,1.4c0.3,0.4,0.9,0.7,1.4,0.4
				c0.3-0.2,0.7-0.4,1.1-0.6c0.1,0,0.2-0.1,0.2-0.1c0,0,0.2-0.1,0.2-0.1c0.2-0.1,0.4-0.1,0.6-0.2c0.2-0.1,0.4-0.1,0.6-0.1
				c0.1,0,0.2,0,0.3-0.1c0,0,0,0,0,0c0,0,0.1,0,0.1,0c0.4,0,0.8,0,1.3,0c0.5,0,1-0.5,1-1C91.7,55.6,91.3,55.2,90.8,55.1z"/>
		</g>
	</g>
	<g>
		<path class="st4" d="M58.8,68c-3.5,1.2-8.4,2-12.1,1.7c-3.5,4.1-8.8,6.5-14.2,6.6c-5.4,0.1-10.8-1.9-14.5-5.8
			c-2.6,0.8-5.3,1.4-8,1.3c-2.7-0.1-5.5-1-7.5-2.8c-0.8-0.7-1.4-1.5-1.8-2.5c-0.7-1.5-1-3.2-0.6-4.9c0.6-2.4,2.6-4.3,4.9-5.4
			c4.2-2.1,9.3-2.1,13.4,0.3c-6.7-4.9-9.8-14.3-7.2-22.3c1.1-3.5,3.5-6.9,7-7.8c3-0.7,6.2,0.5,8.8,2.1c7.9,5,12.9,14.5,12.4,23.8
			c0.1-3.2,3.9-6,7.1-5.4c3.2,0.5,5.4,4.2,4.4,7.3c2.4-1.6,6.1-1.7,8.9-0.9c1.8,0.5,3.3,1.8,4.3,3.3c0.5,0.9,0.9,1.9,1,3
			C65.3,63.5,62.3,66.7,58.8,68z"/>
		<path class="st1" d="M58.8,68c-3.5,1.2-8.4,2-12.1,1.7c-3.5,4.1-8.8,6.5-14.2,6.6c-5.4,0.1-10.8-1.9-14.5-5.8
			c-2.6,0.8-5.3,1.4-8,1.3c-2.7-0.1-5.5-1-7.5-2.8c-0.8-0.7-1.4-1.5-1.8-2.5c1.8,1.2,3.8,2,5.9,2.4c3.1,0.5,6.3,0,9-1.5
			c-0.9-1.4-1.1-2.9-1-4.5c3.3,5.7,9.8,9.3,16.4,9.4c6.6,0.1,13.1-3.6,16.5-9.2c0.2,1.5-0.1,2.8-0.6,4.2c2.9,0,5.8,0.1,8.6-0.6
			c2.8-0.7,5.5-2.1,7.2-4.5c1.1-1.5,1.6-3.4,1.4-5.2c0.5,0.9,0.9,1.9,1,3C65.3,63.5,62.3,66.7,58.8,68z"/>
		<g>
			<path class="st2" d="M17.5,30.7c-0.4-0.4-1-0.4-1.4,0c-2.1,2.1-3.4,4.9-3.4,7.9c0,0.5,0.5,1,1,1c0.5,0,1-0.5,1-1
				c0-2.4,1.1-4.8,2.8-6.5C17.9,31.8,17.8,31.1,17.5,30.7z"/>
			<path class="st2" d="M46,49.7c-0.1-0.2-0.2-0.5-0.5-0.6c-0.2-0.1-0.5-0.1-0.8-0.1c-1.7,0.3-3.1,1.6-3.6,3.2
				c-0.2,0.5,0.2,1.1,0.7,1.2c0.5,0.1,1.1-0.2,1.2-0.7c0-0.1,0-0.1,0.1-0.2c0.1-0.2,0.2-0.4,0.4-0.6c0.1-0.2,0.3-0.3,0.5-0.5
				c0.2-0.1,0.4-0.3,0.6-0.4c0.2-0.1,0.4-0.2,0.7-0.2c0.2,0,0.5-0.3,0.6-0.5C46,50.2,46,49.9,46,49.7z"/>
			<path class="st2" d="M10.4,57.3c-2.8,0.2-5.4,1.3-7.6,3c-0.4,0.3-0.4,1.1,0,1.4c0.4,0.4,1,0.3,1.4,0c1.7-1.4,4-2.3,6.2-2.5
				c0.5,0,1-0.4,1-1C11.4,57.7,10.9,57.2,10.4,57.3z"/>
		</g>
	</g>
	<g>
		<path class="st0" d="M94.1,80.3c-0.8,3.7-4.7,6.1-8.5,6.5c-3.8,0.4-7.7-0.9-11.4-2.1c-3,4.4-8.1,7.3-13.4,7.6
			c-5.3,0.3-10.5-2.2-14-6.2c-2.2,2-5.3,3-8.3,2.7c-3-0.3-5.9-1.8-7.7-4.2c-2.9,0.9-6,1.6-9.1,1.5c-3.1-0.1-6.2-1.1-8.4-3.3
			c-0.9-0.9-1.7-2-2.2-3.3c-0.6-1.6-0.8-3.5-0.3-5.2c1-3.2,4.3-5.4,7.6-6c3.3-0.6,6.7,0.1,10,0.9c-1.2-1.5-2.3-3.1-3-4.9
			c-0.6-1.9-0.6-4,0.5-5.7c1.1-1.6,3.2-2.4,5.2-2.1c1.9,0.2,3.7,1.3,5,2.8c-3-4-4-9.2-3-14.1c1-4.9,4.3-9.2,8.9-11.2
			c4.5-2,10.2-1.4,14,1.7c3.1,2.5,5,6.4,5.8,10.4c0.8,3.9,0.7,8,0.5,12c0.9-3,2.4-6,4.7-8.2c2.3-2.2,5.7-3.5,8.7-2.5
			c2.8,0.8,4.8,3.4,5.4,6.3c0.6,2.8-0.1,5.9-1.5,8.4c-1.4,2.5-3,5.7-5.3,7.5c2.9-0.3,5.8-0.6,8.7-0.4c2.9,0.3,5.8,1.3,8,3.2
			c1.6,1.5,2.7,3.5,2.9,5.7C94.3,78.9,94.3,79.6,94.1,80.3z"/>
		<path class="st1" d="M94.1,80.3c-0.8,3.7-4.7,6.1-8.5,6.5c-3.8,0.4-7.7-0.9-11.4-2.1c-3,4.4-8.1,7.3-13.4,7.6
			c-5.3,0.3-10.5-2.2-14-6.2c-2.2,2-5.3,3-8.3,2.7c-3-0.3-5.9-1.8-7.7-4.2c-2.9,0.9-6,1.6-9.1,1.5c-3.1-0.1-6.2-1.1-8.4-3.3
			c-0.9-0.9-1.7-2-2.2-3.3c1.6,1.7,4,2.8,6.3,3.2c3.8,0.6,7.6-0.3,11.4-1.2c-0.9-2-1.3-4.6-1-6.8c0.5,3.4,2.9,6.5,6,8
			c3.1,1.5,6.9,1.4,10-0.3c-1.2-1.6-1.6-3.8-1.5-5.8c2.3,6.6,9.2,11.4,16.2,11.7c7,0.3,14-4,17-10.4c0,1.1-0.1,2.2-0.1,3.4
			c4,1.3,8.1,2.2,12.3,1.9c2.2-0.2,4.7-0.8,5.9-2.6c0.5-0.8,0.8-1.6,0.8-2.5C94.3,78.9,94.3,79.6,94.1,80.3z"/>
		<g>
			<path class="st2" d="M42.4,39.1c-0.3-0.5-0.9-0.6-1.4-0.4c-2.3,1.2-4,3.3-4.7,5.7c-0.1,0.5,0.2,1.1,0.7,1.2
				c0.5,0.1,1.1-0.2,1.2-0.7c0.1-0.3,0.2-0.5,0.3-0.8c0,0,0,0,0,0c0,0,0,0,0,0c0-0.1,0.1-0.1,0.1-0.2c0.1-0.1,0.1-0.2,0.2-0.3
				c0.1-0.3,0.3-0.5,0.4-0.7c0.1-0.1,0.1-0.2,0.2-0.3c0,0,0.2-0.2,0,0c0,0,0.1-0.1,0.1-0.2c0.3-0.4,0.7-0.8,1.2-1.1c0,0,0.1,0,0.1,0
				c0,0,0.1-0.1,0.1-0.1c0.1-0.1,0.2-0.1,0.3-0.2c0.2-0.2,0.5-0.3,0.7-0.4C42.6,40.2,42.7,39.5,42.4,39.1z"/>
			<path class="st2" d="M37.7,51.2c0-0.2-0.1-0.3-0.1-0.5c0-0.3,0-0.7,0-1c0-0.2-0.1-0.5-0.3-0.7c-0.2-0.2-0.5-0.3-0.7-0.3
				c-0.3,0-0.5,0.1-0.7,0.3c-0.1,0.1-0.1,0.1-0.2,0.2c-0.1,0.2-0.1,0.3-0.1,0.5c-0.1,0.7,0,1.4,0.2,2.1c0.1,0.2,0.2,0.5,0.5,0.6
				c0.2,0.1,0.5,0.2,0.8,0.1c0.2-0.1,0.5-0.2,0.6-0.5C37.8,51.7,37.8,51.4,37.7,51.2z"/>
			<path class="st2" d="M32.1,59.6c-0.1-0.2-0.3-0.4-0.6-0.5c-0.6-0.1-1.3-0.1-1.9,0.1c-0.6,0.2-1.2,0.6-1.6,1.1
				c-0.2,0.2-0.3,0.4-0.3,0.7c0,0.2,0.1,0.5,0.3,0.7c0.2,0.2,0.4,0.3,0.7,0.3c0.2,0,0.5-0.1,0.7-0.3c0.1-0.1,0.2-0.2,0.4-0.4
				c0.1-0.1,0.2-0.1,0.4-0.2c0.1-0.1,0.3-0.1,0.4-0.1c0.2,0,0.4,0,0.5,0c0,0,0,0,0,0c0.2,0,0.5,0,0.7-0.1c0.2-0.1,0.4-0.4,0.5-0.6
				C32.3,60.1,32.3,59.8,32.1,59.6z"/>
			<path class="st2" d="M22.3,70c-2.3,0-4.6,0.5-6.6,1.5c-0.5,0.2-0.6,0.9-0.4,1.4c0.3,0.5,0.9,0.6,1.4,0.4c1.7-0.8,3.7-1.2,5.6-1.2
				c0.5,0,1-0.5,1-1C23.3,70.5,22.9,70,22.3,70z"/>
		</g>
	</g>
</g>
</svg>
