<?xml version="1.0" encoding="utf-8"?>
<!-- Generator: Adobe Illustrator 26.0.2, SVG Export Plug-In . SVG Version: 6.00 Build 0)  -->
<svg version="1.1" id="Слой_1" xmlns="http://www.w3.org/2000/svg" xmlns:xlink="http://www.w3.org/1999/xlink" x="0px" y="0px"
	 viewBox="0 0 100 100" style="enable-background:new 0 0 100 100;" xml:space="preserve">
<style type="text/css">
	.st0{fill:#4AC4D5;}
	.st1{fill:#9BDBE2;}
	.st2{fill:#FFFFFF;}
	.st3{fill:#0097A9;}
	.st4{fill:#00B4CA;}
</style>
<g>
	<g>
		<path class="st0" d="M40.6,20.3c0.8,1.3,2.4,1.8,4,2c2.4,0.3,4.8,0.2,7.1-0.5c1.8,1.9,4.3,3.2,7,3.3c2.7,0.1,5.4-0.9,7.4-2.7
			c1.3,1.3,3.2,1.9,5,1.8c1.9-0.1,3.5-1.3,4.7-2.7c1,0,2.1-0.2,3-0.8c0.9-0.5,1.6-1.4,1.8-2.4c0-0.2,0.1-0.4,0-0.6
			c-0.1-1.6-1.5-3.1-3.1-3.6c-1.8-0.6-3.7-0.3-5.6,0c1.3-2,2.6-3.9,3.1-6.2c0.5-2.3,0.1-5-1.7-6.5C72,0.3,70.1-0.1,68.3,0
			c-2.5,0.2-4.9,1.4-6.6,3.2C59.9,5,58.9,7.5,58.8,10c-0.3-0.8-1.3-1.2-2.1-1.1c-0.8,0.1-1.5,0.9-1.5,1.7C54,9,52.6,7.4,50.7,6.7
			c-1.9-0.7-4.3-0.2-5.4,1.4c-0.7,1.1-0.9,2.5-0.5,3.7c0.3,1.3,1,2.4,1.9,3.4c-1.7-0.5-3.5-0.5-4.9,0.5c-0.3,0.3-0.6,0.6-0.9,1
			C40.1,17.8,39.9,19.2,40.6,20.3z"/>
		<path class="st1" d="M40.6,20.3c0.8,1.3,2.4,1.8,4,2c2.4,0.3,4.8,0.2,7.1-0.5c1.8,1.9,4.3,3.2,7,3.3c2.7,0.1,5.4-0.9,7.4-2.7
			c1.3,1.3,3.2,1.9,5,1.8c1.9-0.1,3.5-1.3,4.7-2.7c1,0,2.1-0.2,3-0.8c0.9-0.5,1.6-1.4,1.8-2.4c0-0.2,0.1-0.4,0-0.6
			c-0.2,0.6-0.6,1.1-1,1.5c-0.8,0.7-1.9,1-3,0.8c0.3-1,0.3-1.5,0.3-2.2c-0.5,2.1-2,3.8-4.1,4.4c-2.1,0.6-4.4,0-5.9-1.5
			c0.2-0.9,0.3-2,0.2-3c-1.4,3-4.5,5-7.8,5.2c-3.3,0.1-6.6-1.7-8.3-4.6c0.1,0.7,0.2,1.2,0.2,1.9c-2.3,0.8-4.7,1-7.1,0.7
			c-1.3-0.2-2.7-0.6-3.3-1.7c-0.5-0.8-0.4-1.8-0.1-2.6C40.1,17.8,39.9,19.2,40.6,20.3z"/>
		<g>
			<path class="st2" d="M64,2.8c-1.1,0.6-2,1.4-2.6,2.5c-0.1,0.2,0,0.4,0.1,0.5c0.2,0.1,0.4,0,0.5-0.1c0.6-0.9,1.4-1.7,2.4-2.2
				C64.7,3.2,64.4,2.6,64,2.8z"/>
			<path class="st2" d="M48.5,7.7c0-0.2-0.2-0.4-0.3-0.3c-1.3,0.2-2.5,1.2-2.7,2.5c0,0.2,0,0.4,0.2,0.4c0.2,0,0.4-0.1,0.4-0.2
				c0.1-0.6,0.3-1,0.7-1.4c0,0,0.1-0.1,0.2-0.1c0,0,0,0,0.1-0.1c0,0,0,0,0.1,0c0.1-0.1,0.2-0.2,0.4-0.2c0,0,0.1,0,0.1,0c0,0,0,0,0,0
				c0,0,0,0,0,0c0.1,0,0.1,0,0.2-0.1c0.1,0,0.1,0,0.2-0.1c0,0,0.1,0,0.1,0c0,0,0.1,0,0.1,0C48.4,8,48.5,7.9,48.5,7.7z"/>
			<path class="st2" d="M43.9,15.7c-0.8,0-1.6,0.3-2.2,0.9c-0.1,0.1-0.1,0.3,0,0.5c0.1,0.1,0.3,0.1,0.5,0c0.1-0.1,0.1-0.1,0.2-0.2
				c0,0,0,0,0,0c0,0,0.1,0,0,0c0,0,0,0,0,0c0,0,0,0,0.1,0c0.1,0,0.1-0.1,0.2-0.1c0,0,0.1,0,0.1-0.1c0,0,0,0,0.1,0c0,0,0,0,0,0
				c0,0,0,0,0,0c0.2-0.1,0.3-0.1,0.5-0.1c0,0,0,0,0.1,0c0,0,0,0,0,0c0,0,0.1,0,0.1,0c0.1,0,0.2,0,0.3,0c0.2,0,0.3-0.2,0.3-0.3
				C44.3,15.8,44.1,15.7,43.9,15.7z"/>
		</g>
	</g>
	<g>
		<path class="st3" d="M94.1,56.5c-2.1,1.9-6.1,3-8.7,1.8c-3.5,3.3-7,5.5-11.8,5.7c-4.8,0.2-10-1.6-13.7-4.7
			c-3.1,1.7-7.1,2-10.2,0.2c-1.8-1-3.1-2.9-3.6-4.8c-0.4-1.4-0.3-3,0.3-4.3c1.2-2.8,4.4-4.4,7.5-4.7c3.1-0.3,6.4,1.3,9.3,2.2
			c-1.5-2.7-2.8-5.5-3.3-8.5c-0.5-3-0.1-6.3,1.5-8.9c2.2-3.5,6.5-5.6,10.6-5.2c4.1,0.4,7.9,3.1,9.8,6.8c1.9,3.7,2,8.2,0.4,12.1
			c2.3-1.8,5.7-2.2,8.5-1.4c2.3,0.7,4.3,2.4,5.2,4.6c0.2,0.4,0.4,0.9,0.5,1.3C97.2,51.5,96.3,54.6,94.1,56.5z"/>
		<path class="st1" d="M94.1,56.5c-2.1,1.9-6.1,3-8.7,1.8c-3.5,3.3-7,5.5-11.8,5.7c-4.8,0.2-10-1.6-13.7-4.7
			c-3.1,1.7-7.1,2-10.2,0.2c-1.8-1-3.1-2.9-3.6-4.8c1.2,1.7,3,3,5,3.6c2.5,0.7,5.3,0.2,7.5-1.2c-0.7-0.9-1-2-0.8-3.2
			c1.6,2.5,3.9,4.4,6.6,5.6c2.7,1.2,5.7,1.6,8.7,1.4c2.7-0.2,5.3-0.8,7.6-2.2c2.3-1.3,4.2-3.4,5.1-5.9c0.2,1.3,0.2,2.5-0.1,3.8
			c3.1,1,6.8,0,8.8-2.7c1.4-1.8,1.8-4.2,1.4-6.5c0.2,0.4,0.4,0.9,0.5,1.3C97.2,51.5,96.3,54.6,94.1,56.5z"/>
		<g>
			<path class="st2" d="M66.8,28.3c-2.9,1.8-4.8,5.2-4.6,8.6c0,0.5,0.4,0.9,0.9,0.9c0.5,0,1-0.4,0.9-0.9c-0.2-2.8,1.3-5.6,3.7-7
				C68.7,29.3,67.8,27.7,66.8,28.3z"/>
			<path class="st2" d="M54.4,48.4c0-0.5-0.4-1-0.9-0.9c-1.8,0.2-3.4,1-4.6,2.3c-0.3,0.4-0.4,1,0,1.3c0.3,0.3,1,0.4,1.3,0
				c0.2-0.3,0.5-0.5,0.8-0.7c0,0,0.1-0.1,0.1-0.1c0.1,0,0.1-0.1,0.2-0.1c0.2-0.1,0.3-0.2,0.5-0.3c0.1,0,0.1-0.1,0.2-0.1
				c0,0,0.1,0,0.1-0.1c0,0,0,0,0.1,0c0,0,0,0,0,0c0,0,0.1,0,0.1-0.1c0.1,0,0.2-0.1,0.2-0.1c0.2-0.1,0.4-0.1,0.5-0.1
				c0.1,0,0.2,0,0.2,0c0.1,0,0.1,0,0.2,0c0,0,0,0,0,0c0.2,0,0.4-0.1,0.6-0.3C54.3,48.9,54.4,48.6,54.4,48.4z"/>
			<path class="st2" d="M88.1,44.4c-1.8-0.1-3.6,0.4-5,1.4c-0.4,0.3-0.6,0.8-0.3,1.3c0.3,0.4,0.8,0.6,1.3,0.3c0.3-0.2,0.6-0.4,1-0.6
				c0.1,0,0.1-0.1,0.2-0.1c0,0,0.2-0.1,0.2-0.1c0.2-0.1,0.4-0.1,0.5-0.2c0.2-0.1,0.4-0.1,0.6-0.1c0.1,0,0.2,0,0.3-0.1c0,0,0,0,0,0
				c0,0,0.1,0,0.1,0c0.4,0,0.8,0,1.2,0c0.5,0,0.9-0.4,0.9-0.9C89,44.8,88.6,44.4,88.1,44.4z"/>
		</g>
	</g>
	<g>
		<path class="st4" d="M58.2,56.4c-3.2,1.1-7.9,1.9-11.3,1.6c-3.3,3.8-8.2,6.1-13.3,6.2c-5,0.1-10.1-1.7-13.5-5.4
			c-2.4,0.7-4.9,1.3-7.5,1.2c-2.5-0.1-5.1-0.9-7-2.6C5,56.7,4.4,55.9,4,55c-0.7-1.4-1-3-0.6-4.6c0.6-2.3,2.5-4,4.6-5
			c3.9-2,8.7-1.9,12.5,0.3c-6.3-4.6-9.1-13.4-6.8-20.8c1-3.3,3.3-6.4,6.6-7.3c2.8-0.7,5.8,0.4,8.2,2c7.4,4.7,12,13.5,11.6,22.3
			c0.1-3,3.7-5.6,6.6-5.1c3,0.5,5.1,4,4.1,6.8c2.3-1.5,5.7-1.6,8.3-0.8c1.7,0.5,3.1,1.7,4,3.1c0.5,0.8,0.8,1.8,0.9,2.8
			C64.3,52.2,61.5,55.3,58.2,56.4z"/>
		<path class="st1" d="M58.2,56.4c-3.2,1.1-7.9,1.9-11.3,1.6c-3.3,3.8-8.2,6.1-13.3,6.2c-5,0.1-10.1-1.7-13.5-5.4
			c-2.4,0.7-4.9,1.3-7.5,1.2c-2.5-0.1-5.1-0.9-7-2.6C5,56.7,4.4,55.9,4,55c1.6,1.1,3.5,1.9,5.5,2.2c2.9,0.5,5.9,0,8.4-1.4
			c-0.8-1.3-1-2.7-1-4.3c3.1,5.3,9.2,8.7,15.3,8.8c6.2,0.1,12.3-3.4,15.5-8.6c0.2,1.4-0.1,2.7-0.6,4c2.7,0,5.4,0.1,8-0.6
			c2.6-0.6,5.2-2,6.7-4.2c1-1.4,1.5-3.2,1.3-4.9c0.5,0.8,0.8,1.8,0.9,2.8C64.3,52.2,61.5,55.3,58.2,56.4z"/>
		<g>
			<path class="st2" d="M19.6,21.6c-0.4-0.4-0.9-0.3-1.3,0c-2,1.9-3.2,4.6-3.2,7.4c0,0.5,0.4,0.9,0.9,0.9c0.5,0,0.9-0.4,0.9-0.9
				c0-2.3,1-4.5,2.7-6.1C20,22.6,19.9,21.9,19.6,21.6z"/>
			<path class="st2" d="M46.2,39.3c-0.1-0.2-0.2-0.4-0.4-0.6c-0.2-0.1-0.5-0.1-0.7-0.1c-1.6,0.3-2.9,1.5-3.3,3
				c-0.1,0.5,0.2,1,0.6,1.1c0.5,0.1,1-0.2,1.1-0.6c0-0.1,0-0.1,0.1-0.2c0.1-0.2,0.2-0.4,0.3-0.6c0.1-0.2,0.3-0.3,0.5-0.5
				c0.2-0.1,0.4-0.2,0.6-0.3c0.2-0.1,0.4-0.1,0.6-0.2c0.2,0,0.4-0.2,0.6-0.4C46.3,39.8,46.3,39.5,46.2,39.3z"/>
			<path class="st2" d="M13,46.4c-2.6,0.2-5,1.2-7.1,2.8c-0.4,0.3-0.3,1,0,1.3c0.4,0.4,0.9,0.3,1.3,0c1.6-1.3,3.7-2.1,5.8-2.3
				c0.5,0,0.9-0.4,0.9-0.9C13.9,46.8,13.5,46.3,13,46.4z"/>
		</g>
	</g>
	<g>
		<path class="st0" d="M91.3,68c-0.8,3.5-4.4,5.7-8,6.1c-3.6,0.4-7.2-0.9-10.6-2c-2.8,4.1-7.6,6.8-12.6,7.1c-5,0.3-9.8-2.1-13.1-5.8
			c-2.1,1.9-5,2.8-7.8,2.5c-2.8-0.3-5.5-1.7-7.2-3.9c-2.8,0.9-5.6,1.5-8.5,1.4c-2.9-0.1-5.8-1.1-7.9-3.1c-0.9-0.8-1.6-1.9-2-3.1
			c-0.6-1.5-0.7-3.2-0.3-4.8c0.9-3,4-5,7.1-5.6c3.1-0.6,6.3,0.1,9.4,0.8c-1.2-1.4-2.2-2.9-2.8-4.6c-0.6-1.7-0.6-3.8,0.5-5.3
			c1.1-1.5,3-2.2,4.9-2c1.8,0.2,3.5,1.3,4.7,2.6c-2.8-3.7-3.7-8.6-2.8-13.1c0.9-4.5,4.1-8.6,8.3-10.5c4.2-1.8,9.5-1.3,13.1,1.6
			c2.9,2.4,4.6,6,5.4,9.7c0.7,3.7,0.6,7.5,0.5,11.3c0.9-2.8,2.2-5.6,4.4-7.7c2.1-2.1,5.3-3.2,8.1-2.4c2.6,0.8,4.5,3.2,5.1,5.9
			c0.6,2.7-0.1,5.5-1.4,7.8c-1.3,2.4-2.8,5.3-4.9,7c2.7-0.3,5.5-0.6,8.2-0.3c2.7,0.3,5.5,1.2,7.5,3c1.5,1.4,2.6,3.3,2.7,5.3
			C91.5,66.6,91.4,67.3,91.3,68z"/>
		<path class="st1" d="M91.3,68c-0.8,3.5-4.4,5.7-8,6.1c-3.6,0.4-7.2-0.9-10.6-2c-2.8,4.1-7.6,6.8-12.6,7.1c-5,0.3-9.8-2.1-13.1-5.8
			c-2.1,1.9-5,2.8-7.8,2.5c-2.8-0.3-5.5-1.7-7.2-3.9c-2.8,0.9-5.6,1.5-8.5,1.4c-2.9-0.1-5.8-1.1-7.9-3.1c-0.9-0.8-1.6-1.9-2-3.1
			c1.5,1.6,3.7,2.6,5.9,2.9c3.5,0.6,7.1-0.3,10.6-1.1c-0.9-1.9-1.2-4.3-1-6.3c0.5,3.2,2.7,6.1,5.6,7.5c2.9,1.4,6.5,1.3,9.3-0.3
			c-1.1-1.5-1.5-3.5-1.4-5.4c2.2,6.2,8.6,10.7,15.2,11c6.6,0.3,13.1-3.7,15.8-9.7c0,1.1-0.1,2.1-0.1,3.2c3.7,1.3,7.6,2.1,11.5,1.8
			c2.1-0.2,4.4-0.7,5.5-2.4c0.5-0.7,0.7-1.5,0.8-2.4C91.5,66.6,91.4,67.3,91.3,68z"/>
		<g>
			<path class="st2" d="M42.9,29.4c-0.3-0.4-0.8-0.6-1.3-0.3c-2.1,1.1-3.7,3.1-4.4,5.4c-0.1,0.5,0.2,1,0.7,1.1
				c0.5,0.1,1-0.1,1.1-0.7c0.1-0.3,0.2-0.5,0.3-0.8c0,0,0,0,0,0c0,0,0,0,0,0c0-0.1,0-0.1,0.1-0.2c0.1-0.1,0.1-0.2,0.2-0.3
				c0.1-0.2,0.3-0.5,0.4-0.7c0.1-0.1,0.1-0.2,0.2-0.3c0,0,0.2-0.2,0,0c0,0,0.1-0.1,0.1-0.1c0.3-0.4,0.7-0.8,1.1-1.1c0,0,0,0,0.1,0
				c0,0,0.1-0.1,0.1-0.1c0.1-0.1,0.2-0.1,0.3-0.2c0.2-0.1,0.5-0.3,0.7-0.4C43,30.5,43.2,29.8,42.9,29.4z"/>
			<path class="st2" d="M38.5,40.7c0-0.2-0.1-0.3-0.1-0.5c0-0.3,0-0.6,0-1c0-0.2-0.1-0.5-0.3-0.7c-0.2-0.2-0.4-0.3-0.7-0.3
				c-0.2,0-0.5,0.1-0.7,0.3c0,0.1-0.1,0.1-0.1,0.2c-0.1,0.1-0.1,0.3-0.1,0.5c-0.1,0.6,0,1.3,0.2,1.9c0.1,0.2,0.2,0.4,0.4,0.6
				c0.2,0.1,0.5,0.2,0.7,0.1c0.2-0.1,0.4-0.2,0.6-0.4C38.6,41.2,38.6,40.9,38.5,40.7z"/>
			<path class="st2" d="M33.3,48.6c-0.1-0.2-0.3-0.4-0.6-0.4c-0.6-0.1-1.2-0.1-1.8,0.1c-0.6,0.2-1.1,0.5-1.5,1
				c-0.2,0.2-0.3,0.4-0.3,0.7c0,0.2,0.1,0.5,0.3,0.7c0.2,0.2,0.4,0.3,0.7,0.3c0.2,0,0.5-0.1,0.7-0.3c0.1-0.1,0.2-0.2,0.3-0.3
				c0.1-0.1,0.2-0.1,0.3-0.2c0.1,0,0.3-0.1,0.4-0.1c0.2,0,0.3,0,0.5,0c0,0,0,0,0,0c0.2,0,0.4,0,0.7-0.1c0.2-0.1,0.4-0.3,0.4-0.6
				C33.4,49,33.4,48.8,33.3,48.6z"/>
			<path class="st2" d="M24.1,58.3c-2.2,0-4.3,0.5-6.2,1.4c-0.4,0.2-0.6,0.9-0.3,1.3c0.3,0.5,0.8,0.6,1.3,0.3
				c1.6-0.8,3.4-1.2,5.3-1.1c0.5,0,1-0.4,0.9-0.9C25,58.7,24.6,58.3,24.1,58.3z"/>
		</g>
	</g>
	<g>
		<g>
			<path class="st3" d="M25.8,99.4c-0.7-0.5-0.9-1.2-0.9-1.8c0.2-3.3,8-7.4,8-7.4s-0.1,0.5-0.3,1.3C31.7,94.6,29.1,102.1,25.8,99.4z
				"/>
			<path class="st1" d="M25.8,99.4c-0.7-0.5-0.9-1.2-0.9-1.8c0.1,0.4,0.4,0.7,0.7,0.8c0.6,0.4,1.4,0.3,2.1,0
				c0.6-0.3,1.1-0.8,1.6-1.4c1.4-1.6,2.4-3.5,3.3-5.5C31.7,94.6,29.1,102.1,25.8,99.4z"/>
		</g>
		<g>
			<path class="st3" d="M26,85.3c-0.5-0.4-0.8-1-0.7-1.5c0.2-2.7,6.5-6,6.5-6s-0.1,0.4-0.3,1.1C30.7,81.4,28.6,87.5,26,85.3z"/>
			<path class="st1" d="M26,85.3c-0.5-0.4-0.8-1-0.7-1.5c0.1,0.3,0.3,0.5,0.6,0.7c0.5,0.3,1.2,0.2,1.7,0c0.5-0.3,0.9-0.7,1.3-1.1
				c1.1-1.3,1.9-2.9,2.7-4.5C30.7,81.4,28.6,87.5,26,85.3z"/>
		</g>
		<g>
			<path class="st3" d="M55.1,91.7c-0.4-0.4-0.6-0.8-0.6-1.2c0.1-2.2,5.2-4.8,5.2-4.8s-0.1,0.3-0.2,0.8
				C58.9,88.6,57.2,93.5,55.1,91.7z"/>
			<path class="st1" d="M55.1,91.7c-0.4-0.4-0.6-0.8-0.6-1.2c0.1,0.2,0.2,0.4,0.5,0.5c0.4,0.2,0.9,0.2,1.3,0c0.4-0.2,0.7-0.6,1-0.9
				c0.9-1.1,1.5-2.3,2.1-3.6C58.9,88.6,57.2,93.5,55.1,91.7z"/>
		</g>
		<g>
			<path class="st3" d="M67.7,85.2c-0.6-0.5-0.9-1.1-0.8-1.7c0.2-3.1,7.5-6.9,7.5-6.9s-0.1,0.5-0.3,1.2
				C73.2,80.7,70.8,87.7,67.7,85.2z"/>
			<path class="st1" d="M67.7,85.2c-0.6-0.5-0.9-1.1-0.8-1.7c0.1,0.3,0.3,0.6,0.7,0.8c0.6,0.3,1.3,0.3,1.9,0
				c0.6-0.3,1.1-0.8,1.5-1.3c1.3-1.5,2.2-3.3,3.1-5.1C73.2,80.7,70.8,87.7,67.7,85.2z"/>
		</g>
		<g>
			<path class="st3" d="M73.4,94.9c-0.4-0.4-0.6-0.8-0.6-1.2c0.1-2.2,5.2-4.8,5.2-4.8s-0.1,0.3-0.2,0.8
				C77.2,91.8,75.5,96.6,73.4,94.9z"/>
			<path class="st1" d="M73.4,94.9c-0.4-0.4-0.6-0.8-0.6-1.2c0.1,0.2,0.2,0.4,0.5,0.5c0.4,0.2,0.9,0.2,1.3,0c0.4-0.2,0.7-0.6,1-0.9
				c0.9-1.1,1.5-2.3,2.1-3.6C77.2,91.8,75.5,96.6,73.4,94.9z"/>
		</g>
		<g>
			<path class="st3" d="M9.3,79.7c-0.5-0.4-0.8-1-0.7-1.5c0.2-2.7,6.5-6,6.5-6s-0.1,0.4-0.3,1.1C14.1,75.8,12,81.9,9.3,79.7z"/>
			<path class="st1" d="M9.3,79.7c-0.5-0.4-0.8-1-0.7-1.5c0.1,0.3,0.3,0.5,0.6,0.7c0.5,0.3,1.2,0.2,1.7,0c0.5-0.3,0.9-0.7,1.3-1.1
				c1.1-1.3,1.9-2.9,2.7-4.5C14.1,75.8,12,81.9,9.3,79.7z"/>
		</g>
		<g>
			<path class="st3" d="M12.4,93c-0.4-0.4-0.6-0.8-0.6-1.2C12,89.7,17,87,17,87s-0.1,0.3-0.2,0.8C16.2,89.9,14.5,94.8,12.4,93z"/>
			<path class="st1" d="M12.4,93c-0.4-0.4-0.6-0.8-0.6-1.2c0.1,0.2,0.2,0.4,0.5,0.5c0.4,0.2,0.9,0.2,1.3,0c0.4-0.2,0.7-0.6,1-0.9
				c0.9-1.1,1.5-2.3,2.1-3.6C16.2,89.9,14.5,94.8,12.4,93z"/>
		</g>
	</g>
</g>
</svg>
