<?xml version="1.0" encoding="utf-8"?>
<!-- Generator: Adobe Illustrator 26.0.2, SVG Export Plug-In . SVG Version: 6.00 Build 0)  -->
<svg version="1.1" id="Слой_1" xmlns="http://www.w3.org/2000/svg" xmlns:xlink="http://www.w3.org/1999/xlink" x="0px" y="0px"
	 viewBox="0 0 100 100" style="enable-background:new 0 0 100 100;" xml:space="preserve">
<style type="text/css">
	.st0{fill:#FF8D02;}
	.st1{fill:#FFDC45;}
	.st2{fill:#0097A9;}
	.st3{fill:#9BDBE2;}
	.st4{fill:#FFFFFF;}
</style>
<g>
	<g>
		<path class="st0" d="M89.4,24.4l-5.3,5c-1.9,1.8-3,3.2-1,6.7l3.6,6.1l-7.3,1c-2.6,0.4-4.7,0.9-4.9,5l-0.7,7l-6.2-3.6
			c-2.4-1.4-4.3-2.1-7.2,1.3l-4.7,5.5l-3.9-6.9c-1.6-3.2-2.3-4-6.4-2.6l-6.2,1.7l1.4-6.9c1-4.3,0-5.1-3.2-6.1l-6.7-2.9l5.4-4.9
			c3.7-2.9,2.4-4.7,1-6.9l-3.7-5.9l7.3-0.9c4.7-0.1,4.8-2.5,5-5.1l0.6-7l6.4,3.2c2.2,1.1,5,0.6,6.7-1.2L64.1,0l3.8,7.2
			C69,9.4,71.5,10.5,74,10l6.8-1.4l-1.1,7c-0.9,3.8,0.2,4.4,3.1,5.7L89.4,24.4z"/>
		<g>
			<circle class="st1" cx="60" cy="29.2" r="18.3"/>
		</g>
	</g>
	<g>
		<path class="st2" d="M97.7,64.6c-1.9,3.2-5.9,4.4-9.5,4.9c-5.7,0.8-11.6,0.4-17.1-1.1C66.6,73,60.6,76,54.2,76.3
			c-6.4,0.3-12.9-2.1-17.8-6.4c-3.2,3.1-7.6,4.5-12.1,4.3c-4.4-0.2-8.3-3.1-11.3-6.4c-2.5-0.1-5.1-0.6-7.3-1.8
			c-2.2-1.3-4-3.4-4.4-5.9c-0.1-0.5-0.1-1-0.1-1.6c0.2-3.9,3.5-7.3,7.4-8.6c4.3-1.4,9-0.7,13.5,0.1c-3.1-4.8-6.2-9.5-7.4-15
			c-1.2-5.5-0.2-11.9,4-15.7c3.3-2.9,7.9-3.9,12.3-3.5c6,0.5,11.8,3.3,15.9,7.6c4.1,4.4,6.6,10.3,6.7,16.3c0.8-1.8,3.2-3,5.1-2.6
			c2,0.4,3.6,2.2,3.7,4.1c2.7-4,6.3-7.8,10.8-9.4c4.6-1.6,10.3-0.6,13.1,3.4c1.8,2.5,2.1,5.9,1.3,9c-0.8,3-2.5,5.7-4.5,8.1
			c4-1.1,8.4-1.2,11.8,1.3c0.8,0.6,1.6,1.4,2.1,2.3C98.8,58.5,99.2,61.9,97.7,64.6z"/>
		<path class="st3" d="M97.7,64.6c-1.9,3.2-5.9,4.4-9.5,4.9c-5.7,0.8-11.6,0.4-17.1-1.1C66.6,73,60.6,76,54.2,76.3
			c-6.4,0.3-12.9-2.1-17.8-6.4c-3.2,3.1-7.6,4.5-12.1,4.3c-4.4-0.2-8.3-3.1-11.3-6.4c-2.5-0.1-5.1-0.6-7.3-1.8
			c-2.2-1.3-4-3.4-4.4-5.9c-0.1-0.5-0.1-1-0.1-1.6c0.5,1.4,1.3,2.7,2.5,3.6c1.9,1.6,4.7,2.3,7.1,1.9c-0.6-2.4-0.8-3.6-0.7-5.2
			c1.2,5,4.9,9.2,9.8,10.6c4.9,1.4,10.6,0,14.3-3.5c-0.6-2.3-0.7-4.9-0.5-7.2c3.4,7.2,10.7,12.1,18.7,12.4c8,0.3,15.9-4.1,19.9-11.1
			c-0.2,1.6-0.4,2.9-0.5,4.5c5.6,1.9,11.2,2.5,17.1,1.7c3.1-0.4,6.4-1.4,8-4.1c1.1-1.9,1-4.2,0.2-6.4C98.8,58.5,99.2,61.9,97.7,64.6
			z"/>
		<g>
			<path class="st4" d="M29.6,18.3c-4.3,0.1-8.4,2.4-10.7,6c-0.7,1.1,1.1,2.2,1.8,1.1c1.9-3,5.3-4.9,8.9-4.9
				C31,20.3,31,18.3,29.6,18.3z"/>
			<path class="st4" d="M19.2,32.4c-0.1-0.3-0.2-0.6-0.2-0.9c0-0.4,0-0.7,0-1.1c0-0.2,0.1-0.4,0.1-0.5c0.1-0.5-0.2-1.2-0.7-1.3
				c-0.6-0.1-1.1,0.2-1.3,0.7c-0.3,1.2-0.3,2.5,0.1,3.7c0.1,0.3,0.2,0.5,0.5,0.6c0.2,0.1,0.6,0.2,0.8,0.1
				C19,33.5,19.4,32.9,19.2,32.4z"/>
			<path class="st4" d="M16.2,50.8c-2.2-0.1-4.3,0.2-6.4,0.8C9.3,51.8,9,52.5,9.3,53c0.3,0.6,0.8,0.7,1.4,0.6c0.1,0,0.2-0.1,0.4-0.1
				c0,0,0.2,0,0.2,0c0.2-0.1,0.5-0.1,0.7-0.2c0.5-0.1,0.9-0.2,1.4-0.2c0.5-0.1,0.9-0.1,1.4-0.1c0.2,0,0.5,0,0.7,0c0,0,0.1,0,0.1,0
				c0,0,0,0,0.1,0c0.1,0,0.3,0,0.4,0c0.5,0,1.1-0.3,1.2-0.9C17.1,51.5,16.8,50.8,16.2,50.8z"/>
			<path class="st4" d="M77.8,34.3c-3.4,0.1-6.8,1.7-9,4.4c-0.4,0.4-0.4,1.1,0,1.5c0.4,0.4,1.1,0.4,1.5,0c1.9-2.3,4.6-3.7,7.5-3.8
				C79.1,36.4,79.1,34.3,77.8,34.3z"/>
		</g>
	</g>
	<g>
		<g>
			<path class="st2" d="M24,99.5c-0.6-0.5-0.9-1.1-0.8-1.7c0.2-3.2,7.6-7.1,7.6-7.1s-0.1,0.5-0.3,1.2C29.6,94.9,27.1,102,24,99.5z"
				/>
			<path class="st3" d="M24,99.5c-0.6-0.5-0.9-1.1-0.8-1.7c0.1,0.3,0.4,0.6,0.7,0.8c0.6,0.3,1.3,0.3,2,0c0.6-0.3,1.1-0.8,1.5-1.3
				c1.3-1.6,2.3-3.4,3.1-5.3C29.6,94.9,27.1,102,24,99.5z"/>
		</g>
		<g>
			<path class="st2" d="M24.1,85.9c-0.5-0.4-0.7-0.9-0.7-1.4c0.2-2.6,6.3-5.8,6.3-5.8s-0.1,0.4-0.3,1C28.7,82.2,26.7,88,24.1,85.9z"
				/>
			<path class="st3" d="M24.1,85.9c-0.5-0.4-0.7-0.9-0.7-1.4c0.1,0.3,0.3,0.5,0.5,0.7c0.5,0.3,1.1,0.2,1.6,0
				c0.5-0.2,0.9-0.7,1.3-1.1c1.1-1.3,1.9-2.8,2.6-4.3C28.7,82.2,26.7,88,24.1,85.9z"/>
		</g>
		<g>
			<path class="st2" d="M52,92.1c-0.4-0.3-0.6-0.7-0.5-1.1c0.1-2.1,5-4.6,5-4.6s-0.1,0.3-0.2,0.8C55.6,89.1,54,93.7,52,92.1z"/>
			<path class="st3" d="M52,92.1c-0.4-0.3-0.6-0.7-0.5-1.1c0.1,0.2,0.2,0.4,0.4,0.5c0.4,0.2,0.9,0.2,1.3,0c0.4-0.2,0.7-0.5,1-0.9
				c0.9-1,1.5-2.2,2-3.4C55.6,89.1,54,93.7,52,92.1z"/>
		</g>
		<g>
			<path class="st2" d="M64.1,85.8c-0.6-0.5-0.8-1-0.8-1.6c0.2-3,7.2-6.6,7.2-6.6s-0.1,0.5-0.3,1.2C69.4,81.5,67,88.2,64.1,85.8z"/>
			<path class="st3" d="M64.1,85.8c-0.6-0.5-0.8-1-0.8-1.6c0.1,0.3,0.3,0.6,0.6,0.8c0.6,0.3,1.3,0.2,1.8,0c0.6-0.3,1-0.8,1.4-1.3
				c1.2-1.5,2.1-3.2,2.9-4.9C69.4,81.5,67,88.2,64.1,85.8z"/>
		</g>
		<g>
			<path class="st2" d="M69.5,95.1C69.1,94.8,69,94.4,69,94c0.1-2.1,5-4.6,5-4.6s-0.1,0.3-0.2,0.8C73.2,92.1,71.6,96.8,69.5,95.1z"
				/>
			<path class="st3" d="M69.5,95.1C69.1,94.8,69,94.4,69,94c0.1,0.2,0.2,0.4,0.4,0.5c0.4,0.2,0.9,0.2,1.3,0c0.4-0.2,0.7-0.5,1-0.9
				c0.9-1,1.5-2.2,2-3.4C73.2,92.1,71.6,96.8,69.5,95.1z"/>
		</g>
	</g>
</g>
</svg>
