<?xml version="1.0" encoding="utf-8"?>
<!-- Generator: Adobe Illustrator 26.0.2, SVG Export Plug-In . SVG Version: 6.00 Build 0)  -->
<svg version="1.1" id="Слой_1" xmlns="http://www.w3.org/2000/svg" xmlns:xlink="http://www.w3.org/1999/xlink" x="0px" y="0px"
	 viewBox="0 0 100 100" style="enable-background:new 0 0 100 100;" xml:space="preserve">
<style type="text/css">
	.st0{fill:#FFDC45;}
	.st1{fill:#FF8D02;}
	.st2{fill:#0097A9;}
	.st3{fill:#9BDBE2;}
	.st4{fill:#FFFFFF;}
</style>
<g>
	<path class="st0" d="M95.6,25.3c0,14-11.3,25.3-25.3,25.3c-9.1,0-17.1-4.8-21.6-12.1c3.2,3,7.5,4.8,12.3,4.8c10,0,18-8.1,18-18
		c0-10-8.1-18-18-18c-4.7,0-9.1,1.8-12.3,4.8C53.2,4.8,61.2,0,70.3,0C84.3,0,95.6,11.3,95.6,25.3z"/>
	<g>
		<polygon class="st0" points="32.6,20.1 34.4,25 39.5,25.1 35.4,28.3 36.9,33.2 32.6,30.3 28.4,33.2 29.9,28.3 25.8,25.1 30.9,25 
					"/>
		<polygon class="st1" points="48.5,16.4 49.5,19.2 52.4,19.3 50.1,21 50.9,23.8 48.5,22.2 46.1,23.8 46.9,21 44.6,19.3 47.5,19.2 
					"/>
		<polygon class="st1" points="14.5,4.6 15.4,7.4 18.4,7.4 16,9.2 16.9,12 14.5,10.4 12.1,12 12.9,9.2 10.6,7.4 13.5,7.4 		"/>
	</g>
	<g>
		<path class="st2" d="M5.2,67.7c1.7,2.8,5.1,3.8,8.3,4.2c5,0.7,10,0.3,14.9-1c3.8,4.1,9,6.7,14.6,6.9c5.6,0.2,11.2-1.8,15.4-5.6
			c2.8,2.7,6.6,3.9,10.5,3.8c3.9-0.2,7.2-2.7,9.8-5.6c2.2-0.1,4.4-0.5,6.3-1.6c1.9-1.1,3.4-2.9,3.8-5.1c0.1-0.5,0.1-0.9,0.1-1.3
			c-0.1-3.4-3.1-6.4-6.4-7.5c-3.8-1.2-7.8-0.6-11.7,0c2.7-4.1,5.4-8.2,6.4-13c1.1-4.8,0.2-10.4-3.5-13.7c-2.8-2.5-6.9-3.3-10.7-3
			c-5.2,0.4-10.3,2.8-13.9,6.6c-3.6,3.8-5.7,9-5.9,14.2c-0.7-1.6-2.8-2.6-4.5-2.3c-1.7,0.3-3.1,1.9-3.2,3.6
			c-2.4-3.5-5.4-6.8-9.4-8.2c-4-1.4-8.9-0.5-11.3,2.9c-1.5,2.2-1.8,5.2-1.1,7.8c0.7,2.6,2.2,5,3.9,7c-3.5-1-7.3-1-10.2,1.1
			c-0.7,0.5-1.3,1.2-1.9,2C4.3,62.4,3.9,65.4,5.2,67.7z"/>
		<path class="st3" d="M5.2,67.7c1.7,2.8,5.1,3.8,8.3,4.2c5,0.7,10,0.3,14.9-1c3.8,4.1,9,6.7,14.6,6.9c5.6,0.2,11.2-1.8,15.4-5.6
			c2.8,2.7,6.6,3.9,10.5,3.8c3.9-0.2,7.2-2.7,9.8-5.6c2.2-0.1,4.4-0.5,6.3-1.6c1.9-1.1,3.4-2.9,3.8-5.1c0.1-0.5,0.1-0.9,0.1-1.3
			c-0.4,1.2-1.2,2.3-2.2,3.2c-1.6,1.4-4.1,2-6.2,1.6c0.5-2.1,0.7-3.1,0.6-4.5c-1.1,4.3-4.2,8-8.5,9.2c-4.3,1.2-9.2,0-12.4-3.1
			c0.5-2,0.6-4.2,0.4-6.2c-3,6.3-9.3,10.5-16.2,10.8c-6.9,0.3-13.9-3.6-17.3-9.6c0.1,1.4,0.3,2.5,0.5,3.9c-4.9,1.6-9.8,2.1-14.8,1.5
			c-2.7-0.4-5.6-1.2-6.9-3.6C5,64,5.1,62,5.7,60.2C4.3,62.4,3.9,65.4,5.2,67.7z"/>
		<g>
			<path class="st4" d="M54.2,31.1c-2.2,1.2-4.1,3-5.4,5.2c-0.2,0.3-0.1,0.8,0.2,0.9c0.3,0.2,0.7,0.1,0.9-0.2
				c1.2-1.9,2.9-3.6,4.9-4.7C55.7,31.9,55,30.7,54.2,31.1z"/>
			<path class="st4" d="M21.9,41.4c0-0.3-0.3-0.7-0.7-0.7c-2.8,0.3-5.2,2.5-5.7,5.3c-0.1,0.4,0.1,0.7,0.5,0.8
				c0.3,0.1,0.8-0.1,0.8-0.5c0.2-1.2,0.7-2.1,1.5-2.9c0.1-0.1,0.2-0.2,0.3-0.3c0,0,0.1-0.1,0.1-0.1c0,0,0.1-0.1,0.1-0.1
				c0.2-0.2,0.5-0.3,0.8-0.5c0.1,0,0.1-0.1,0.2-0.1c0,0,0,0,0,0c0,0,0,0,0.1,0c0.1-0.1,0.3-0.1,0.4-0.1c0.1,0,0.3-0.1,0.4-0.1
				c0.1,0,0.2,0,0.2,0c0,0,0.3,0,0.1,0C21.6,42.1,21.9,41.8,21.9,41.4z"/>
			<path class="st4" d="M12.3,58.1c-1.7-0.1-3.4,0.6-4.5,1.9c-0.2,0.3-0.3,0.7,0,1c0.3,0.2,0.7,0.3,1,0c0.1-0.1,0.3-0.3,0.4-0.4
				c0,0,0.1-0.1,0.1-0.1c0,0,0.1-0.1,0.1,0c-0.1,0,0.1,0,0.1,0c0,0,0.1,0,0.1-0.1c0.2-0.1,0.3-0.2,0.5-0.3c0.1,0,0.2-0.1,0.2-0.1
				c0,0,0.1,0,0.1-0.1c0,0,0,0,0,0c0,0,0,0,0,0c0.3-0.1,0.7-0.2,1-0.3c0,0,0.1,0,0.1,0c0,0,0,0,0,0c0.1,0,0.2,0,0.2,0
				c0.2,0,0.4,0,0.6,0c0.4,0,0.7-0.3,0.7-0.7C13,58.4,12.7,58.1,12.3,58.1z"/>
		</g>
	</g>
	<g>
		<g>
			<path class="st2" d="M11.5,99.4c-0.7-0.5-0.9-1.2-0.9-1.8c0.2-3.3,8-7.4,8-7.4s-0.1,0.5-0.4,1.3C17.3,94.6,14.7,102.1,11.5,99.4z
				"/>
			<path class="st3" d="M11.5,99.4c-0.7-0.5-0.9-1.2-0.9-1.8c0.1,0.4,0.4,0.7,0.7,0.8c0.6,0.4,1.4,0.3,2.1,0
				c0.6-0.3,1.2-0.9,1.6-1.4c1.4-1.7,2.4-3.6,3.3-5.5C17.3,94.6,14.7,102.1,11.5,99.4z"/>
		</g>
		<g>
			<path class="st2" d="M11.6,85.2c-0.6-0.4-0.8-1-0.7-1.5c0.2-2.7,6.6-6.1,6.6-6.1s-0.1,0.4-0.3,1.1C16.4,81.2,14.3,87.4,11.6,85.2
				z"/>
			<path class="st3" d="M11.6,85.2c-0.6-0.4-0.8-1-0.7-1.5c0.1,0.3,0.3,0.5,0.6,0.7c0.5,0.3,1.2,0.2,1.7,0c0.5-0.3,0.9-0.7,1.3-1.2
				c1.1-1.4,1.9-2.9,2.7-4.5C16.4,81.2,14.3,87.4,11.6,85.2z"/>
		</g>
		<g>
			<path class="st2" d="M40.9,91.7c-0.4-0.4-0.6-0.8-0.6-1.2c0.1-2.2,5.2-4.9,5.2-4.9s-0.1,0.3-0.2,0.9
				C44.8,88.5,43.1,93.4,40.9,91.7z"/>
			<path class="st3" d="M40.9,91.7c-0.4-0.4-0.6-0.8-0.6-1.2c0.1,0.2,0.2,0.4,0.5,0.6c0.4,0.2,0.9,0.2,1.4,0
				c0.4-0.2,0.8-0.6,1.1-0.9c0.9-1.1,1.6-2.3,2.2-3.6C44.8,88.5,43.1,93.4,40.9,91.7z"/>
		</g>
		<g>
			<path class="st2" d="M53.7,85.1c-0.6-0.5-0.9-1.1-0.8-1.7c0.2-3.1,7.5-7,7.5-7s-0.1,0.5-0.3,1.2C59.2,80.6,56.8,87.6,53.7,85.1z"
				/>
			<path class="st3" d="M53.7,85.1c-0.6-0.5-0.9-1.1-0.8-1.7c0.1,0.3,0.3,0.6,0.7,0.8c0.6,0.3,1.3,0.3,1.9,0
				c0.6-0.3,1.1-0.8,1.5-1.3c1.3-1.6,2.2-3.4,3.1-5.2C59.2,80.6,56.8,87.6,53.7,85.1z"/>
		</g>
		<g>
			<path class="st2" d="M59.4,94.8c-0.4-0.4-0.6-0.8-0.6-1.2c0.1-2.2,5.2-4.9,5.2-4.9s-0.1,0.3-0.2,0.9
				C63.3,91.7,61.6,96.6,59.4,94.8z"/>
			<path class="st3" d="M59.4,94.8c-0.4-0.4-0.6-0.8-0.6-1.2c0.1,0.2,0.2,0.4,0.5,0.6c0.4,0.2,0.9,0.2,1.3,0
				c0.4-0.2,0.8-0.6,1.1-0.9c0.9-1.1,1.6-2.3,2.2-3.6C63.3,91.7,61.6,96.6,59.4,94.8z"/>
		</g>
	</g>
</g>
</svg>
