<?xml version="1.0" encoding="utf-8"?>
<!-- Generator: Adobe Illustrator 26.0.2, SVG Export Plug-In . SVG Version: 6.00 Build 0)  -->
<svg version="1.1" id="Слой_1" xmlns="http://www.w3.org/2000/svg" xmlns:xlink="http://www.w3.org/1999/xlink" x="0px" y="0px"
	 viewBox="0 0 100 100" style="enable-background:new 0 0 100 100;" xml:space="preserve">
<style type="text/css">
	.st0{fill:#FFDC45;}
	.st1{fill:#0097A9;}
	.st2{fill:#9BDBE2;}
	.st3{fill:#FFFFFF;}
</style>
<g>
	<g>
		<polygon class="st0" points="39.3,46.8 58.6,43.7 47.2,68.7 64,66.4 34.9,100 43.9,75 30.9,77.8 		"/>
		<g>
			<path class="st1" d="M95.2,40.8c-0.2,1.4-0.7,2.8-1.5,4c-2.3,4-6.7,6.5-11.3,7.3c-4.5,0.8-9.6,1.4-14.1,0.2
				c-4.1,5-10.4,8-16.8,8.1c-6.4,0.1-12.8-2.7-17.1-7.5c-5.7,1.7-11.7,2.3-17.7,1.8c-4.1-0.3-8.5-1.4-10.8-4.8
				c-0.9-1.3-1.3-2.7-1.3-4.3c-0.1-2.7,0.9-5.4,2.8-7.4c2.9-3.1,7.2-4.4,11.5-4.5c4.2-0.1,8.4,0.5,12.5,1.5c-2.2-1.8-4-4.2-4.5-7
				c-0.5-2.8,0.5-6,3-7.4c2.4-1.4,5.7-0.7,7.8,1.1c2.2,1.8,3.4,4.4,4.3,7.1c-0.6-5.4,0.7-11.3,2.9-16.4C47,7.7,50.9,3.3,56,1.3
				C61-0.8,67.2-0.4,71.5,2.9c4.2,3.2,6.4,8.7,6.1,14.1c-0.2,5.3-2.6,10.4-6,14.5c3.4-1.6,7-2.5,10.7-2.9c3.7-0.4,7.8,0.6,10.4,3.3
				C95,34.3,95.7,37.6,95.2,40.8z"/>
			<path class="st2" d="M95.2,40.8c-0.2,1.4-0.7,2.8-1.5,4c-2.3,4-6.7,6.5-11.3,7.3c-4.5,0.8-9.6,1.4-14.1,0.2
				c-4.1,5-10.4,8-16.8,8.1c-6.4,0.1-12.8-2.7-17.1-7.5c-5.7,1.7-11.7,2.3-17.7,1.8c-4.1-0.3-8.5-1.4-10.8-4.8
				c-0.9-1.3-1.3-2.7-1.3-4.3c2.5,3.7,7,6,11.5,6.7c5.4,0.8,10.8-0.3,16.1-1.5c-1.5-1.8-2.1-4.5-1.9-6.9c4,7,11.8,11.4,19.8,11.4
				c8,0,15.9-4.7,19.8-11.7c-0.2,2.1-0.8,4-1.6,5.9c5.7,0.3,11.5,0.8,16.9-0.9C89.4,47.4,93.2,44.5,95.2,40.8z"/>
			<g>
				<path class="st3" d="M58.6,5.3c-0.3-0.6-1-0.7-1.6-0.4c-4.8,2.4-8.5,7.1-9.5,12.4c-0.1,0.6,0.2,1.3,0.8,1.5
					c0.6,0.2,1.3-0.2,1.5-0.8c0.9-4.8,4.1-8.8,8.4-11C58.7,6.7,58.9,5.9,58.6,5.3z"/>
				<path class="st3" d="M31.5,26.3c0.1-0.2,0.2-0.4,0.3-0.6c0,0-0.1,0.1-0.1,0.1c0.2-0.2,0.3-0.5,0.3-0.8c0-0.3-0.1-0.6-0.3-0.8
					c-0.2-0.2-0.5-0.4-0.8-0.3c-0.3,0-0.6,0.1-0.8,0.3c-0.5,0.7-0.9,1.4-1,2.3c0,0.4-0.1,0.7,0,1.1c0,0.2,0.1,0.5,0.1,0.7
					c0.1,0.2,0.2,0.5,0.3,0.7c0.1,0.3,0.5,0.5,0.7,0.5c0.3,0.1,0.7,0,0.9-0.1c0.3-0.2,0.5-0.4,0.5-0.7l0-0.3c0-0.1,0-0.3-0.1-0.4
					c0,0,0,0,0,0c-0.1-0.2-0.1-0.4-0.2-0.6c0-0.2,0-0.4,0-0.6C31.4,26.7,31.4,26.5,31.5,26.3z"/>
				<path class="st3" d="M20.5,36.4c-3.5-0.4-7.1,0.5-10,2.4c-0.5,0.3-0.8,1-0.4,1.6c0.3,0.5,1.1,0.8,1.6,0.4
					c2.6-1.7,5.7-2.4,8.9-2.1c0.6,0.1,1.2-0.6,1.2-1.2C21.6,36.9,21.1,36.5,20.5,36.4z"/>
			</g>
		</g>
	</g>
	<g>
		<g>
			<path class="st1" d="M11.4,82.8c-0.8-0.3-1.3-0.8-1.4-1.4C9,78.2,15,71.7,15,71.7s0.1,0.5,0.1,1.3C15.3,76.3,15.3,84.2,11.4,82.8
				z"/>
			<path class="st2" d="M11.4,82.8c-0.8-0.3-1.3-0.8-1.4-1.4c0.2,0.3,0.6,0.5,0.9,0.6c0.7,0.1,1.4-0.2,1.9-0.7
				c0.5-0.5,0.8-1.2,1-1.9c0.7-2,1-4.1,1.3-6.3C15.3,76.3,15.3,84.2,11.4,82.8z"/>
		</g>
		<g>
			<path class="st1" d="M24.2,74.4c-0.7-0.2-1-0.6-1.2-1.2c-0.8-2.6,4.1-7.9,4.1-7.9s0,0.4,0.1,1.1C27.4,69.1,27.5,75.6,24.2,74.4z"
				/>
			<path class="st2" d="M24.2,74.4c-0.7-0.2-1-0.6-1.2-1.2c0.2,0.2,0.5,0.4,0.8,0.5c0.6,0.1,1.2-0.2,1.6-0.6c0.4-0.4,0.7-1,0.9-1.5
				c0.6-1.6,0.9-3.4,1-5.1C27.4,69.1,27.5,75.6,24.2,74.4z"/>
		</g>
		<g>
			<path class="st1" d="M50.8,93.4c-0.5-0.2-0.8-0.5-0.9-0.9c-0.6-2.1,3.3-6.3,3.3-6.3s0,0.3,0.1,0.9C53.4,89.1,53.4,94.3,50.8,93.4
				z"/>
			<path class="st2" d="M50.8,93.4c-0.5-0.2-0.8-0.5-0.9-0.9c0.1,0.2,0.4,0.3,0.6,0.4c0.5,0.1,0.9-0.1,1.3-0.5
				c0.3-0.3,0.5-0.8,0.7-1.2c0.5-1.3,0.7-2.7,0.8-4.1C53.4,89.1,53.4,94.3,50.8,93.4z"/>
		</g>
		<g>
			<path class="st1" d="M80.5,75.1c-0.8-0.3-1.2-0.7-1.3-1.3c-0.9-3,4.7-9.1,4.7-9.1s0,0.5,0.1,1.3C84.1,69,84.2,76.4,80.5,75.1z"/>
			<path class="st2" d="M80.5,75.1c-0.8-0.3-1.2-0.7-1.3-1.3c0.2,0.3,0.5,0.5,0.9,0.5c0.7,0.1,1.3-0.2,1.8-0.7
				c0.5-0.5,0.7-1.1,1-1.7c0.7-1.9,1-3.9,1.2-5.9C84.1,69,84.2,76.4,80.5,75.1z"/>
		</g>
		<g>
			<path class="st1" d="M70.8,67.3c-0.5-0.2-0.8-0.5-0.9-0.9c-0.6-2.1,3.3-6.3,3.3-6.3s0,0.3,0.1,0.9C73.3,63.1,73.4,68.3,70.8,67.3
				z"/>
			<path class="st2" d="M70.8,67.3c-0.5-0.2-0.8-0.5-0.9-0.9c0.1,0.2,0.4,0.3,0.6,0.4c0.5,0.1,0.9-0.1,1.3-0.5
				c0.3-0.3,0.5-0.8,0.7-1.2c0.5-1.3,0.7-2.7,0.8-4.1C73.3,63.1,73.4,68.3,70.8,67.3z"/>
		</g>
	</g>
</g>
</svg>
