<?xml version="1.0" encoding="utf-8"?>
<!-- Generator: Adobe Illustrator 26.0.2, SVG Export Plug-In . SVG Version: 6.00 Build 0)  -->
<svg version="1.1" id="Слой_1" xmlns="http://www.w3.org/2000/svg" xmlns:xlink="http://www.w3.org/1999/xlink" x="0px" y="0px"
	 viewBox="0 0 100 100" style="enable-background:new 0 0 100 100;" xml:space="preserve">
<style type="text/css">
	.st0{fill:#4AC4D5;}
	.st1{fill:#00B4CA;}
	.st2{fill:#0097A9;}
</style>
<g>
	<path class="st0" d="M80.2,39c-1-0.3-1.9-0.7-2.8-1.1c-0.4-0.2-0.8-0.4-1.2-0.5c-0.1,0-0.2-0.1-0.3-0.1l4.6-2.9
		c1.1-0.7,0-2.5-1.1-1.7l-4.4,2.8c0-0.3,0.1-0.6,0.1-0.9c0.2-1.1,0.3-2.1,0.5-3.2c0.2-1.3-1.8-1.8-2-0.5l-0.6,3.7
		c-0.1,0.7-0.3,1.5-0.3,2.2l-3.9,2.5c0-0.3,0.1-0.6,0.1-0.9c0.2-1.1,0.3-2.1,0.5-3.2c0.2-1.3-1.8-1.8-2-0.5l-0.6,3.7
		c-0.1,0.7-0.3,1.5-0.3,2.2l-15.3,9.6l-3.1-2.1V30.4c0.3-0.2,0.6-0.3,0.8-0.5c0.5-0.3,1-0.6,1.4-1c1-0.7,2-1.5,3-2.3
		c0.4-0.4,0.4-1.1,0-1.5c-0.4-0.4-1-0.4-1.5,0c-0.8,0.6-1.6,1.2-2.4,1.8c-0.4,0.3-0.7,0.5-1.1,0.8c-0.1,0.1-0.2,0.1-0.3,0.2v-4.8
		c0.3-0.2,0.6-0.3,0.8-0.5c0.5-0.3,1-0.6,1.4-1c1-0.7,2-1.5,3-2.3c0.4-0.4,0.4-1.1,0-1.5c-0.4-0.4-1-0.4-1.5,0
		c-0.8,0.6-1.6,1.2-2.4,1.8c-0.4,0.3-0.7,0.5-1.1,0.8c-0.1,0.1-0.2,0.1-0.3,0.2v-5.4c0-1.3-2.1-1.3-2.1,0v5.2
		c-0.2-0.2-0.4-0.4-0.7-0.6c-0.8-0.7-1.6-1.4-2.4-2.1c-1-0.9-2.5,0.6-1.5,1.5l2.8,2.5c0.5,0.5,1.1,1.1,1.7,1.4v4.6
		c-0.2-0.2-0.4-0.4-0.7-0.6c-0.8-0.7-1.6-1.4-2.4-2.1c-1-0.9-2.5,0.6-1.5,1.5l2.8,2.5c0.5,0.5,1.1,1.1,1.7,1.4V48l-3.6,2.2l-15-10.8
		c0.1-0.3,0.1-0.7,0.1-1c0-0.6,0-1.2,0.1-1.7c0-1.2,0-2.5-0.1-3.7c0-0.6-0.7-0.9-1.2-0.9c-0.6,0.1-0.9,0.6-0.9,1.2
		c0.1,1,0.1,2,0.1,3c0,0.5,0,0.9,0,1.4c0,0.1,0,0.3,0,0.4l-3.9-2.8c0.1-0.3,0.1-0.7,0.1-1c0-0.6,0-1.2,0.1-1.7c0-1.2,0-2.5-0.1-3.7
		c0-0.6-0.7-0.9-1.2-0.9c-0.6,0.1-0.9,0.6-0.9,1.2c0.1,1,0.1,2,0.1,3c0,0.5,0,0.9,0,1.4c0,0.1,0,0.3,0,0.4l-3.2-2.3
		c-1.1-0.8-2.3,0.9-1.2,1.7l3,2.2c-0.3,0.1-0.5,0.1-0.8,0.2c-1,0.2-2.1,0.5-3.1,0.7c-1.3,0.3-1,2.3,0.3,2l3.6-0.8
		c0.7-0.2,1.5-0.3,2.1-0.6l3.7,2.7c-0.3,0.1-0.5,0.1-0.8,0.2c-1,0.2-2.1,0.5-3.1,0.7c-1.3,0.3-1,2.3,0.3,2l3.6-0.8
		c0.7-0.2,1.5-0.3,2.1-0.6l14.4,10.4v5.4l-15.2,9.6c-0.3-0.2-0.6-0.3-0.9-0.5c-0.5-0.2-1.1-0.5-1.6-0.7c-1.2-0.5-2.3-0.9-3.5-1.3
		c-0.5-0.2-1.1,0.3-1.2,0.8c-0.1,0.6,0.2,1.1,0.8,1.2c1,0.3,1.9,0.7,2.8,1.1c0.4,0.2,0.8,0.4,1.2,0.5c0.1,0.1,0.2,0.1,0.4,0.2
		l-4,2.6c-0.3-0.2-0.6-0.3-0.9-0.5c-0.5-0.2-1.1-0.5-1.6-0.7c-1.2-0.5-2.3-0.9-3.5-1.3c-0.5-0.2-1.1,0.3-1.2,0.8
		c-0.1,0.6,0.2,1.1,0.8,1.2c1,0.3,1.9,0.7,2.8,1.1c0.4,0.2,0.8,0.4,1.2,0.5c0.1,0.1,0.2,0.1,0.4,0.2l-3.3,2.1
		c-1.1,0.7,0,2.5,1.1,1.7l3.2-2c0,0.3-0.1,0.5-0.1,0.8c-0.2,1.1-0.3,2.1-0.5,3.2c-0.2,1.3,1.8,1.8,2,0.5l0.6-3.7
		c0.1-0.7,0.3-1.5,0.3-2.2l3.9-2.4c0,0.3-0.1,0.5-0.1,0.8c-0.2,1.1-0.3,2.1-0.5,3.2c-0.2,1.3,1.8,1.8,2,0.5l0.6-3.7
		c0.1-0.7,0.3-1.5,0.3-2.2l15.2-9.6l4.2,2.4v17.9c-0.3,0.2-0.6,0.4-0.9,0.5c-0.5,0.3-1,0.6-1.4,1c-1,0.7-2,1.5-3,2.3
		c-0.4,0.4-0.4,1.1,0,1.5c0.4,0.4,1,0.4,1.5,0c0.8-0.6,1.6-1.2,2.4-1.8c0.4-0.3,0.7-0.5,1.1-0.8c0.1-0.1,0.2-0.1,0.3-0.2v4.8
		c-0.3,0.2-0.6,0.4-0.9,0.5c-0.5,0.3-1,0.6-1.4,1c-1,0.7-2,1.5-3,2.3c-0.4,0.4-0.4,1.1,0,1.5c0.4,0.4,1,0.4,1.5,0
		c0.8-0.6,1.6-1.2,2.4-1.8c0.4-0.3,0.7-0.5,1.1-0.8c0.1-0.1,0.2-0.1,0.3-0.2v4c0,1.3,2.1,1.3,2.1,0v-3.8c0.2,0.2,0.4,0.4,0.6,0.5
		c0.8,0.7,1.6,1.4,2.4,2.1c1,0.9,2.5-0.6,1.5-1.5l-2.8-2.5c-0.5-0.5-1.1-1-1.7-1.4v-4.6c0.2,0.2,0.4,0.4,0.6,0.5
		c0.8,0.7,1.6,1.4,2.4,2.1c1,0.9,2.5-0.6,1.5-1.5l-2.8-2.5c-0.5-0.5-1.1-1-1.7-1.4V60.6l3.3-1.4l14.2,10.2c0,0.3-0.1,0.7-0.1,1
		c0,0.6,0,1.2-0.1,1.7c0,1.2,0,2.5,0.1,3.7c0,0.6,0.7,0.9,1.2,0.9c0.6-0.1,0.9-0.6,0.9-1.2c-0.1-1-0.1-2-0.1-3c0-0.5,0-0.9,0-1.4
		c0-0.1,0-0.2,0-0.3l3.9,2.8c0,0.3-0.1,0.7-0.1,1c0,0.6,0,1.2-0.1,1.7c0,1.2,0,2.5,0.1,3.7c0,0.6,0.7,0.9,1.2,0.9
		c0.6-0.1,0.9-0.6,0.9-1.2c-0.1-1-0.1-2-0.1-3c0-0.5,0-0.9,0-1.4c0-0.1,0-0.2,0-0.3l4.4,3.2c1.1,0.8,2.3-0.9,1.2-1.7l-4.3-3.1
		c0.3-0.1,0.6-0.1,0.9-0.2c1-0.2,2.1-0.5,3.1-0.7c1.3-0.3,1-2.3-0.3-2l-3.6,0.8c-0.7,0.2-1.5,0.3-2.2,0.6l-3.7-2.7
		c0.3-0.1,0.6-0.1,0.9-0.2c1-0.2,2.1-0.5,3.1-0.7c1.3-0.3,1-2.3-0.3-2L69,67.2c-0.7,0.2-1.5,0.3-2.2,0.6L52.7,57.6v-5.8l15-9.4
		c0.3,0.2,0.6,0.3,0.9,0.4c0.5,0.2,1.1,0.5,1.6,0.7c1.2,0.5,2.3,0.9,3.5,1.3c0.5,0.2,1.1-0.3,1.2-0.8c0.1-0.6-0.2-1.1-0.8-1.2
		c-1-0.3-1.9-0.7-2.8-1.1c-0.4-0.2-0.8-0.4-1.2-0.5c-0.1,0-0.2-0.1-0.3-0.1l4-2.5c0.3,0.2,0.6,0.3,0.9,0.4c0.5,0.2,1.1,0.5,1.6,0.7
		c1.2,0.5,2.3,0.9,3.5,1.3c0.5,0.2,1.1-0.3,1.2-0.8C81.1,39.6,80.8,39.2,80.2,39z"/>
	<g>
		<path class="st1" d="M77.7,10.3h-7.3c1.5-1.5,3-3,4.6-4.5c0.5-0.5-0.3-1.2-0.7-0.7c-1.4,1.4-2.8,2.8-4.3,4.2
			c0.1-2,0.1-4.1,0.1-6.1c0-1.3-2.1-1.3-2.1,0c0.1,2.2,0,4.4-0.1,6.6c-1.2-1.5-2.5-3-3.8-4.5c-0.4-0.5-1.2,0.2-0.7,0.7
			c1.2,1.4,2.4,2.9,3.6,4.3h-7.2c-1.3,0-1.3,2.1,0,2.1h7c-1.9,1.8-3.7,3.6-5.6,5.5c-0.5,0.5,0.3,1.2,0.7,0.7
			c1.9-1.9,3.8-3.8,5.7-5.6c-0.2,2.7-0.5,5.3-1,8c-0.2,1.3,1.8,1.9,2,0.5c0.4-2.6,0.7-5.2,1-7.8c1.3,1.6,2.5,3.2,3.7,4.8
			c0.4,0.5,1.3,0,0.9-0.5c-1.4-1.9-2.9-3.8-4.3-5.6h7.7C79,12.4,79,10.3,77.7,10.3z"/>
		<path class="st2" d="M99.2,58.1h-5.9c1.2-1.2,2.5-2.4,3.7-3.6c0.4-0.4-0.2-1-0.6-0.6c-1.2,1.1-2.3,2.3-3.5,3.4
			c0.1-1.7,0.1-3.3,0.1-5c0-1.1-1.7-1.1-1.7,0c0,1.8,0,3.6-0.1,5.4c-1-1.2-2-2.4-3.1-3.7c-0.4-0.4-0.9,0.2-0.6,0.6
			c1,1.1,2,2.3,2.9,3.5h-5.8c-1.1,0-1.1,1.7,0,1.7h5.7c-1.5,1.5-3,3-4.5,4.4c-0.4,0.4,0.2,1,0.6,0.6c1.5-1.5,3.1-3,4.6-4.6
			c-0.2,2.2-0.4,4.3-0.8,6.5c-0.2,1.1,1.4,1.5,1.6,0.4c0.3-2.1,0.6-4.2,0.8-6.3c1,1.3,2,2.6,3,3.9c0.3,0.4,1,0,0.7-0.4
			c-1.1-1.5-2.3-3.1-3.5-4.6h6.3C100.3,59.8,100.3,58.1,99.2,58.1z"/>
		<path class="st2" d="M10.5,53.6H6.4C7.3,52.8,8.1,52,9,51.2c0.3-0.3-0.1-0.7-0.4-0.4c-0.8,0.8-1.6,1.5-2.4,2.3
			c0-1.1,0.1-2.3,0.1-3.4c0-0.7-1.2-0.7-1.1,0c0,1.2,0,2.5-0.1,3.7c-0.7-0.8-1.4-1.7-2.1-2.5c-0.2-0.3-0.6,0.1-0.4,0.4
			c0.7,0.8,1.3,1.6,2,2.4h-4c-0.7,0-0.7,1.1,0,1.1h3.9c-1,1-2.1,2-3.1,3c-0.3,0.3,0.1,0.7,0.4,0.4c1.1-1,2.1-2.1,3.2-3.1
			c-0.1,1.5-0.3,3-0.5,4.4c-0.1,0.7,1,1,1.1,0.3c0.2-1.4,0.4-2.9,0.5-4.3c0.7,0.9,1.4,1.8,2.1,2.7c0.2,0.3,0.7,0,0.5-0.3
			c-0.8-1.1-1.6-2.1-2.4-3.1h4.3C11.2,54.8,11.2,53.6,10.5,53.6z"/>
		<path class="st1" d="M5.5,27.7c-2,0-2,3.1,0,3.1C7.5,30.8,7.5,27.7,5.5,27.7z"/>
		<path class="st1" d="M71.9,86.4c-2.7,0-2.7,4.1,0,4.1C74.6,90.5,74.6,86.4,71.9,86.4z"/>
		<path class="st1" d="M80.2,50.8c-2,0-2,3.1,0,3.1C82.1,53.9,82.2,50.8,80.2,50.8z"/>
		<path class="st1" d="M91.9,93.7c-2.7,0-2.7,4.1,0,4.1C94.6,97.8,94.6,93.7,91.9,93.7z"/>
		<path class="st1" d="M30.4,18.2c-2.7,0-2.7,4.1,0,4.1C33.1,22.4,33.1,18.2,30.4,18.2z"/>
		<path class="st1" d="M28.4,93.7c-2.7,0-2.7,4.1,0,4.1C31.1,97.8,31.1,93.7,28.4,93.7z"/>
	</g>
</g>
</svg>
