<?xml version="1.0" encoding="utf-8"?>
<!-- Generator: Adobe Illustrator 26.0.2, SVG Export Plug-In . SVG Version: 6.00 Build 0)  -->
<svg version="1.1" id="Layer_1" xmlns="http://www.w3.org/2000/svg" xmlns:xlink="http://www.w3.org/1999/xlink" x="0px" y="0px"
	 viewBox="0 0 24 24" style="enable-background:new 0 0 24 24;" xml:space="preserve">
<style type="text/css">
	.st0{fill:url(#SVGID_1_);}
	.st1{fill:url(#SVGID_00000044149581508777888130000009065146219059633597_);}
	.st2{fill:url(#SVGID_00000119823827829724413430000001655269378263896203_);}
	.st3{fill:url(#SVGID_00000107575942189331258250000004431504065173198219_);}
</style>
<g>
	<linearGradient id="SVGID_1_" gradientUnits="userSpaceOnUse" x1="-99.8104" y1="68.8106" x2="-123.8104" y2="68.8106">
		<stop  offset="0" style="stop-color:#28F29C"/>
		<stop  offset="1" style="stop-color:#01A0FA"/>
	</linearGradient>
	<path class="st0" d="M-123.8,80.7c0.2-0.7,0.3-1.4,0.5-2.1c0.3-1.1,0.5-2.3,0.8-3.4c0.2-0.9,0.7-1.6,1.3-2.2
		c3.6-3.6,7.2-7.2,10.8-10.8c1.4-1.4,2.8-2.8,4.1-4.2c1.4-1.5,3.5-1.6,5.1-0.3c0.9,0.7,1.3,1.6,1.4,2.7c0,1.2-0.4,2.1-1.2,2.9
		c-1.6,1.6-3.1,3.1-4.7,4.7c-3.4,3.4-6.8,6.8-10.2,10.3c-0.7,0.7-1.5,1.2-2.5,1.4c-1.7,0.4-3.4,0.8-5.1,1.1c-0.1,0-0.1,0-0.2,0.1
		C-123.8,80.9-123.8,80.8-123.8,80.7z M-101.7,60.7c0-1.3-1.1-2.2-2.2-2c-0.6,0.1-1,0.5-1.4,0.9c-0.1,0.1-0.1,0.2,0,0.3
		c0.4,0.4,0.8,0.8,1.2,1.2c0.1,0.1,0.1,0.2,0,0.3c-0.3,0.3-0.7,0.7-1,1c-0.1,0.1-0.2,0.1-0.4,0c-0.4-0.4-0.8-0.8-1.2-1.2
		c-0.1-0.1-0.2-0.1-0.3,0c-0.4,0.4-0.7,0.7-1.1,1.1c-0.1,0.1-0.1,0.2,0,0.3c0.4,0.4,0.8,0.8,1.2,1.2c0.1,0.1,0.1,0.2,0,0.3
		c-0.3,0.3-0.7,0.7-1,1c-0.1,0.1-0.2,0.1-0.4,0c-0.4-0.4-0.8-0.8-1.2-1.2c-0.1-0.1-0.2-0.1-0.4,0c-3.2,3.2-6.5,6.5-9.7,9.7
		c-0.1,0.1-0.1,0.2,0,0.4c0.8,0.7,1.5,1.5,2.2,2.2c0.2,0.2,0.2,0.2,0.4,0c2.9-3,5.9-5.9,8.8-8.8c1.9-1.9,3.7-3.7,5.6-5.6
		C-101.9,61.6-101.7,61.1-101.7,60.7z M-121.1,77.5c0,0,0,0.1,0,0.1c0.2,0.2,0.4,0.4,0.6,0.6c0,0,0.1,0,0.1,0
		c0.6-0.1,1.1-0.3,1.7-0.4c0.1,0,0.1-0.1,0.1-0.2c-0.6-0.6-1.3-1.3-1.9-1.9c-0.1-0.1-0.1-0.1-0.2,0c0,0.2-0.1,0.4-0.1,0.5
		C-120.9,76.7-121,77.1-121.1,77.5z"/>
	
		<linearGradient id="SVGID_00000068671644975687264990000012331315087715500939_" gradientUnits="userSpaceOnUse" x1="-99.8111" y1="79.8716" x2="-115.778" y2="79.8716">
		<stop  offset="0" style="stop-color:#28F29C"/>
		<stop  offset="1" style="stop-color:#01A0FA"/>
	</linearGradient>
	<path style="fill:url(#SVGID_00000068671644975687264990000012331315087715500939_);" d="M-115.8,80.8c0-0.1,0.1-0.2,0.2-0.2
		c0.5-0.5,1-1,1.5-1.5c0.1-0.1,0.2-0.2,0.4-0.2c4.5,0,9,0,13.6,0c0.3,0,0.3,0,0.3,0.3c0,0.5,0,1.1,0,1.6
		C-105.1,80.8-110.5,80.8-115.8,80.8z"/>
</g>
<g>
	
		<linearGradient id="SVGID_00000181079362508974582600000004262659184825664141_" gradientUnits="userSpaceOnUse" x1="11.6192" y1="3.1817" x2="11.6192" y2="17.8841">
		<stop  offset="0" style="stop-color:#00EBD3"/>
		<stop  offset="1" style="stop-color:#00B3E7"/>
	</linearGradient>
	<path style="fill:url(#SVGID_00000181079362508974582600000004262659184825664141_);" d="M16.2,3.2c0.3,0.1,0.5,0.1,0.8,0.2
		c1.6,0.6,2.4,2.3,1.8,3.9c-0.1,0.4-0.4,0.8-0.7,1.2c-2.7,2.7-5.5,5.5-8.2,8.2c-0.1,0.1-0.2,0.2-0.4,0.2c-1.5,0.3-3.1,0.7-4.6,1
		c-0.4,0.1-0.7-0.2-0.6-0.6c0.4-1.5,0.7-3.1,1-4.6c0-0.2,0.2-0.4,0.3-0.5c2.6-2.7,5.3-5.3,7.9-8C13.7,4,13.8,3.9,14,3.8
		c0.4-0.3,0.9-0.5,1.4-0.6c0,0,0.1,0,0.1,0C15.7,3.2,16,3.2,16.2,3.2z M15.2,10.1c0-0.1-0.1-0.1-0.1-0.1c-1-1-1.9-1.9-2.9-2.9
		C12.1,7,12,7,11.9,7.1c-1.8,1.8-3.6,3.6-5.4,5.4c-0.1,0.1-0.1,0.2,0,0.3c1,1,1.9,1.9,2.9,2.9c0.1,0.1,0.2,0.1,0.3,0
		c0.6-0.6,1.1-1.1,1.7-1.6C12.6,12.7,13.9,11.5,15.2,10.1C15.1,10.2,15.2,10.2,15.2,10.1z M18.1,6.3c0-0.8-0.5-1.7-1.3-2
		c-0.9-0.4-1.7-0.3-2.4,0.4c-0.6,0.5-1,1.1-1.6,1.6c-0.1,0.1-0.1,0.2,0,0.2c1,1,2,2,2.9,2.9c0.1,0.1,0.1,0.1,0.2,0
		c0.5-0.5,1-1,1.5-1.5C17.9,7.5,18.1,6.9,18.1,6.3z M5.3,16.7c0,0.2,0.1,0.1,0.1,0.1c1-0.2,2-0.4,3-0.6c0,0,0.1,0,0.1-0.1
		c0-0.1,0-0.1-0.1-0.1c-0.8-0.8-1.5-1.6-2.3-2.3c0,0-0.1-0.1-0.1-0.1C6,13.6,6,13.7,6,13.7c-0.1,0.6-0.3,1.3-0.4,1.9
		C5.5,16,5.4,16.4,5.3,16.7z"/>
	
		<linearGradient id="SVGID_00000166634896606575028170000012365659271804942720_" gradientUnits="userSpaceOnUse" x1="12" y1="19.9171" x2="12" y2="20.8183">
		<stop  offset="0" style="stop-color:#00EBD3"/>
		<stop  offset="1" style="stop-color:#00B3E7"/>
	</linearGradient>
	<path style="fill:url(#SVGID_00000166634896606575028170000012365659271804942720_);" d="M12,20.8c-2.5,0-5,0-7.5,0
		c-0.2,0-0.3,0-0.4-0.2C3.9,20.4,4,20.1,4.3,20c0.1,0,0.2,0,0.3,0c5,0,9.9,0,14.9,0c0.4,0,0.6,0.2,0.6,0.5c0,0.2-0.2,0.4-0.4,0.4
		c-0.1,0-0.1,0-0.2,0C16.9,20.8,14.5,20.8,12,20.8z"/>
</g>
</svg>
